<svg width="271" height="220" viewBox="0 0 271 220" fill="none" xmlns="http://www.w3.org/2000/svg">
<path fill-rule="evenodd" clip-rule="evenodd" d="M143 16C139.188 16.824 135.188 17.324 131 17.5C137.053 18.962 143.053 20.629 149 22.5C147.983 23.549 147.816 24.716 148.5 26C149.909 27.281 151.409 28.281 153 29C133.607 27.347 114.274 27.68 95 30C91.179 28.915 87.513 27.582 84 26C77.118 18.568 72.618 9.902 70.5 0C80.576 5.804 91.409 9.637 103 11.5C116.272 13.61 129.605 15.11 143 16Z" fill="#8D23A1"/>
<path fill-rule="evenodd" clip-rule="evenodd" d="M143 16C154.783 16.457 166.449 17.791 178 20C178.131 20.876 177.798 21.543 177 22C170.728 20.706 164.395 20.206 158 20.5C169.53 22.734 180.53 26.234 191 31C189.97 33.729 189.97 36.396 191 39C185.837 37.058 180.503 35.725 175 35C167.683 33.001 160.35 31.001 153 29C151.409 28.281 149.909 27.281 148.5 26C147.816 24.716 147.983 23.549 149 22.5C143.053 20.629 137.053 18.962 131 17.5C135.188 17.324 139.188 16.824 143 16Z" fill="#B631B5"/>
<path fill-rule="evenodd" clip-rule="evenodd" d="M178 20C180.873 20.302 183.539 20.969 186 22C183.403 22.221 183.403 22.721 186 23.5C192.115 24.56 197.781 26.727 203 30C203.929 31.189 204.262 32.522 204 34C199.32 34.381 194.986 33.381 191 31C180.53 26.234 169.53 22.734 158 20.5C164.395 20.206 170.728 20.706 177 22C177.798 21.543 178.131 20.876 178 20Z" fill="#EB53B7"/>
<path fill-rule="evenodd" clip-rule="evenodd" d="M186 22C203.932 24.544 218.432 32.877 229.5 47C231.929 49.37 232.429 52.037 231 55C226.157 56.918 221.823 59.584 218 63C217.667 63 217.333 63 217 63C217.131 62.124 216.798 61.457 216 61C213.689 60.286 211.522 59.286 209.5 58C205.867 49.2 199.7 42.867 191 39C189.97 36.396 189.97 33.729 191 31C194.986 33.381 199.32 34.381 204 34C204.262 32.522 203.929 31.189 203 30C197.781 26.727 192.115 24.56 186 23.5C183.403 22.721 183.403 22.221 186 22Z" fill="#DC38C4"/>
<path fill-rule="evenodd" clip-rule="evenodd" d="M87 29C89.866 30.465 92.866 31.465 96 32C92.982 31.835 89.982 32.002 87 32.5C93.444 34.883 100.111 36.383 107 37C105.932 37.934 104.599 38.268 103 38C102.514 41.255 103.514 43.922 106 46C111.054 49.194 116.388 51.861 122 54C123 53.333 124 52.667 125 52C129.952 56.231 129.619 60.231 124 64C122.548 61.016 120.381 60.349 117.5 62C112.588 59.657 107.422 58.657 102 59C77.072 56.088 52.072 55.254 27 56.5C22.473 52.801 18.139 48.968 14 45C9.199 40.028 4.532 34.862 0 29.5C29.137 30.297 58.137 30.13 87 29Z" fill="#8A2B9F"/>
<path fill-rule="evenodd" clip-rule="evenodd" d="M14 45C14.157 43.627 13.99 42.293 13.5 41C8.45603 39.123 8.29003 36.29 13 32.5C9.07603 31.701 9.07603 31.201 13 31C31.316 31.795 49.649 32.295 68 32.5C75.292 33.848 82.625 35.014 90 36C89.238 36.411 88.238 36.577 87 36.5C86.557 38.018 87.224 39.185 89 40C87.923 42.515 86.923 45.015 86 47.5C90.534 51.422 89.867 53.755 84 54.5C66 55.167 48 55.167 30 54.5C31 54.167 32 53.833 33 53.5C31.804 52.846 31.804 52.346 33 52C33.951 52.826 34.951 52.992 36 52.5C34.866 51.484 35.199 50.817 37 50.5C36 50 35 49.5 34 49C33.667 49.667 33.333 50.333 33 51C31.087 50.127 29.253 49.127 27.5 48C26.488 50.364 25.155 51.698 23.5 52C20.957 50.624 20.791 49.457 23 48.5C20.946 44.461 17.946 43.294 14 45Z" fill="#841D9E"/>
<path fill-rule="evenodd" clip-rule="evenodd" d="M240 34C243.333 34 246.667 34 250 34C250 35.667 250 37.333 250 39C246.667 39 243.333 39 240 39C240 37.333 240 35.667 240 34Z" fill="#9EA1A5"/>
<path fill-rule="evenodd" clip-rule="evenodd" d="M84 26C87.513 27.582 91.179 28.915 95 30C114.274 27.68 133.607 27.347 153 29C160.35 31.001 167.683 33.001 175 35C177.769 36.472 180.769 37.639 184 38.5C185.134 39.516 184.801 40.183 183 40.5C186.444 40.611 188.777 42.277 190 45.5C183.844 44.292 177.844 42.459 172 40C167.683 40.632 163.35 41.132 159 41.5C159.916 41.778 160.582 42.278 161 43C157.674 42.155 154.34 41.655 151 41.5C155.518 43.009 159.685 45.176 163.5 48C164.567 55.467 167.733 61.8 173 67C172.383 67.111 171.883 67.444 171.5 68C170.258 66.628 168.758 65.628 167 65C166.333 63 165.667 61 165 59C162.43 61.66 160.93 60.994 160.5 57C160.21 58.544 159.544 59.877 158.5 61C157.833 59.667 156.833 58.667 155.5 58C148.39 60.11 144.056 64.776 142.5 72C140.599 68.637 138.099 68.137 135 70.5C136.21 71.539 137.21 72.706 138 74C126.858 66.757 114.858 61.757 102 59C107.422 58.657 112.588 59.657 117.5 62C120.381 60.349 122.548 61.016 124 64C129.619 60.231 129.952 56.231 125 52C124 52.667 123 53.333 122 54C116.388 51.861 111.054 49.194 106 46C103.514 43.922 102.514 41.255 103 38C104.599 38.268 105.932 37.934 107 37C118.749 39.479 130.249 42.812 141.5 47C144.543 47.001 144.71 46.168 142 44.5C136.136 41.405 130.47 38.072 125 34.5C123 33.833 121 33.167 119 32.5C111.341 32 103.674 31.834 96 32C92.866 31.465 89.866 30.465 87 29C85.667 28.333 84.667 27.333 84 26Z" fill="#81309D"/>
<path fill-rule="evenodd" clip-rule="evenodd" d="M96 32C103.674 31.834 111.341 32 119 32.5C121 33.167 123 33.833 125 34.5C130.47 38.072 136.136 41.405 142 44.5C144.71 46.168 144.543 47.001 141.5 47C130.249 42.812 118.749 39.479 107 37C100.111 36.383 93.444 34.883 87 32.5C89.982 32.002 92.982 31.835 96 32Z" fill="#CF41AA"/>
<path fill-rule="evenodd" clip-rule="evenodd" d="M257 45C261.333 45 265.667 45 270 45C270 48 270 51 270 54C265.667 54 261.333 54 257 54C257 51 257 48 257 45Z" fill="#82878B"/>
<path fill-rule="evenodd" clip-rule="evenodd" d="M161 43C179.597 47.64 196.93 54.973 213 65C209.538 65.982 205.871 66.315 202 66C202.268 67.599 201.934 68.932 201 70C201.03 69.003 200.53 68.336 199.5 68C191.744 71.389 183.911 71.723 176 69C175.21 68.099 174.21 67.432 173 67C167.733 61.8 164.567 55.467 163.5 48C159.685 45.176 155.518 43.009 151 41.5C154.34 41.655 157.674 42.155 161 43Z" fill="#111214"/>
<path fill-rule="evenodd" clip-rule="evenodd" d="M239 62C238.333 61.667 237.667 61.333 237 61C237 60.667 237 60.333 237 60C237.758 57.519 237.758 54.852 237 52C241.333 52 245.667 52 250 52C250 55 250 58 250 61C246.129 60.685 242.462 61.018 239 62Z" fill="#858C91"/>
<path fill-rule="evenodd" clip-rule="evenodd" d="M175 35C180.503 35.725 185.837 37.058 191 39C199.7 42.867 205.867 49.2 209.5 58C211.522 59.286 213.689 60.286 216 61C216.798 61.457 217.131 62.124 217 63C215.895 64.1 214.562 64.767 213 65C196.93 54.973 179.597 47.64 161 43C160.582 42.278 159.916 41.778 159 41.5C163.35 41.132 167.683 40.632 172 40C177.844 42.459 183.844 44.292 190 45.5C188.777 42.277 186.444 40.611 183 40.5C184.801 40.183 185.134 39.516 184 38.5C180.769 37.639 177.769 36.472 175 35Z" fill="#A42EA9"/>
<path fill-rule="evenodd" clip-rule="evenodd" d="M168 49C173.312 51.321 178.645 53.655 184 56C184.255 57.843 184.422 59.843 184.5 62C188.18 66.94 192.18 67.274 196.5 63C197.333 63.333 198.167 63.667 199 64C189.972 70.832 181.472 70.165 173.5 62C171.173 57.847 169.34 53.513 168 49Z" fill="#E5EEED"/>
<path fill-rule="evenodd" clip-rule="evenodd" d="M173 67C174.21 67.432 175.21 68.099 176 69C171.852 69.334 170.185 71.667 171 76C172.667 76 174.333 76 176 76C175.658 76.838 174.992 77.172 174 77C164.542 76.976 155.542 78.976 147 83C143.646 80.312 140.646 77.312 138 74C137.21 72.706 136.21 71.539 135 70.5C138.099 68.137 140.599 68.637 142.5 72C144.056 64.776 148.39 60.11 155.5 58C156.833 58.667 157.833 59.667 158.5 61C159.544 59.877 160.21 58.544 160.5 57C160.93 60.994 162.43 61.66 165 59C165.667 61 166.333 63 167 65C168.758 65.628 170.258 66.628 171.5 68C171.883 67.444 172.383 67.111 173 67Z" fill="#9230A6"/>
<path fill-rule="evenodd" clip-rule="evenodd" d="M231 55C231.667 55 232 55.333 232 56C229.181 58.508 226.181 60.841 223 63C221.333 63 219.667 63 218 63C221.823 59.584 226.157 56.918 231 55Z" fill="#249B82"/>
<path fill-rule="evenodd" clip-rule="evenodd" d="M62 63C51.978 62.668 41.978 63.001 32 64C33.923 64.808 35.923 65.308 38 65.5C34.935 71.233 31.101 76.399 26.5 81C25.523 83.24 25.023 85.573 25 88C23.948 87.851 22.948 88.017 22 88.5C22.671 89.486 22.671 90.653 22 92C15.668 83.65 9.668 74.983 4 66C4.876 65.249 5.876 64.749 7 64.5C25.44 62.015 43.773 61.515 62 63Z" fill="#4456B3"/>
<path fill-rule="evenodd" clip-rule="evenodd" d="M90 69C98.068 71.105 105.735 74.272 113 78.5C106.314 77.005 99.647 75.172 93 73C79.36 69.407 65.36 67.24 51 66.5C64.128 65.577 77.128 66.411 90 69Z" fill="#C7B6E7"/>
<path fill-rule="evenodd" clip-rule="evenodd" d="M217 63C217.333 63 217.667 63 218 63C219.667 63 221.333 63 223 63C220.214 64.807 218.214 67.307 217 70.5C218.321 72.045 217.988 73.211 216 74C215.114 73.175 214.781 72.175 215 71C212.558 70.854 211.891 71.687 213 73.5C210.333 74.5 210.333 75.5 213 76.5C210.404 78.297 210.737 79.631 214 80.5C212.828 80.919 211.828 81.585 211 82.5C215.003 83.6 219.003 84.433 223 85C215.61 84.736 208.277 85.07 201 86C196.91 85.116 193.077 83.449 189.5 81C187.896 82.149 186.23 82.149 184.5 81C183.436 80.079 182.936 79.079 183 78C183.282 76.722 183.949 75.722 185 75C190.333 73.333 195.667 71.667 201 70C201.934 68.932 202.268 67.599 202 66C205.871 66.315 209.538 65.982 213 65C214.562 64.767 215.895 64.1 217 63Z" fill="#3FAB71"/>
<path fill-rule="evenodd" clip-rule="evenodd" d="M201 70C195.667 71.667 190.333 73.333 185 75C182.018 75.463 179.018 75.796 176 76C174.333 76 172.667 76 171 76C170.185 71.667 171.852 69.334 176 69C183.911 71.723 191.744 71.389 199.5 68C200.53 68.336 201.03 69.003 201 70Z" fill="#B530A5"/>
<path fill-rule="evenodd" clip-rule="evenodd" d="M237 61C237.667 61.333 238.333 61.667 239 62C242.333 63.667 245.667 65.333 249 67C249.039 68.083 249.373 69.083 250 70C254.277 72.773 258.11 76.107 261.5 80C262.298 81.759 262.131 83.426 261 85C253.717 86.132 246.383 86.299 239 85.5C236.256 84.697 233.589 83.697 231 82.5C230.12 81.144 229.786 79.644 230 78C232.64 77.546 234.973 76.379 237 74.5C234.56 73.197 232.06 72.03 229.5 71C228.735 71.07 228.235 71.403 228 72C227.066 73.068 226.732 74.401 227 76C223.091 75.825 221.257 73.825 221.5 70C221.808 70.808 222.308 71.475 223 72C224.147 68.226 225.814 64.726 228 61.5C230.982 61.002 233.982 60.835 237 61Z" fill="#98C45F"/>
<path fill-rule="evenodd" clip-rule="evenodd" d="M232 56C233.667 57.333 235.333 58.667 237 60C237 60.333 237 60.667 237 61C233.982 60.835 230.982 61.002 228 61.5C225.814 64.726 224.147 68.226 223 72C222.308 71.475 221.808 70.808 221.5 70C221.257 73.825 223.091 75.825 227 76C226.732 74.401 227.066 73.068 228 72C227.753 74.358 228.419 76.358 230 78C229.786 79.644 230.12 81.144 231 82.5C233.589 83.697 236.256 84.697 239 85.5C246.383 86.299 253.717 86.132 261 85C262.131 83.426 262.298 81.759 261.5 80C258.11 76.107 254.277 72.773 250 70C249.373 69.083 249.039 68.083 249 67C258.639 70.806 265.473 77.473 269.5 87C269.999 90.652 270.165 94.318 270 98C268.9 99.777 268.066 101.777 267.5 104C267.017 103.052 266.851 102.052 267 101C263.271 99.979 259.604 99.979 256 101C247.667 90.371 236.667 85.037 223 85C219.003 84.433 215.003 83.6 211 82.5C211.828 81.585 212.828 80.919 214 80.5C210.737 79.631 210.404 78.297 213 76.5C210.333 75.5 210.333 74.5 213 73.5C211.891 71.687 212.558 70.854 215 71C214.781 72.175 215.114 73.175 216 74C217.988 73.211 218.321 72.045 217 70.5C218.214 67.307 220.214 64.807 223 63C226.181 60.841 229.181 58.508 232 56Z" fill="#65B667"/>
<path fill-rule="evenodd" clip-rule="evenodd" d="M230 78C228.419 76.358 227.753 74.358 228 72C228.235 71.403 228.735 71.07 229.5 71C232.06 72.03 234.56 73.197 237 74.5C234.973 76.379 232.64 77.546 230 78Z" fill="#0E354E"/>
<path fill-rule="evenodd" clip-rule="evenodd" d="M62 63C71.998 63.185 81.665 64.518 91 67C89.627 66.843 88.293 67.01 87 67.5C88.237 67.732 89.237 68.232 90 69C77.128 66.411 64.128 65.577 51 66.5C65.36 67.24 79.36 69.407 93 73C91.744 72.961 90.744 73.461 90 74.5C97.197 76.141 97.531 78.141 91 80.5C91.876 82.085 93.209 83.085 95 83.5C94.374 84.25 93.874 85.084 93.5 86C89.834 87.596 86.001 88.929 82 90C81.058 89.892 80.225 89.559 79.5 89C79.126 89.916 78.626 90.75 78 91.5C80.678 93.423 83.011 95.59 85 98C79.448 96.363 73.781 95.196 68 94.5C53 94.167 38 93.833 23 93.5C22.444 93.117 22.111 92.617 22 92C22.671 90.653 22.671 89.486 22 88.5C22.948 88.017 23.948 87.851 25 88C25.023 85.573 25.523 83.24 26.5 81C31.101 76.399 34.935 71.233 38 65.5C35.923 65.308 33.923 64.808 32 64C41.978 63.001 51.978 62.668 62 63Z" fill="#5845AC"/>
<path fill-rule="evenodd" clip-rule="evenodd" d="M183 78C182.936 79.079 183.436 80.079 184.5 81C186.23 82.149 187.896 82.149 189.5 81C193.077 83.449 196.91 85.116 201 86C196.051 87.155 191.051 88.489 186 90C184.356 90.214 182.856 89.88 181.5 89C181.077 90.456 180.244 90.956 179 90.5C178.771 87.262 178.771 83.929 179 80.5C177.527 79.79 176.86 78.624 177 77C179.065 77.017 181.065 77.35 183 78Z" fill="#33A085"/>
<path fill-rule="evenodd" clip-rule="evenodd" d="M117 76C124.104 78.766 130.104 83.1 135 89C126.715 98.787 117.882 108.12 108.5 117C106.46 115.13 104.627 113.13 103 111C104.181 109.433 105.847 108.599 108 108.5C109.514 107.061 109.847 105.561 109 104C110.964 102.026 113.131 100.36 115.5 99C115.755 91.921 112.255 88.421 105 88.5C106.387 86.455 107.554 84.288 108.5 82C109.117 82.949 108.951 83.782 108 84.5C111.188 86.738 113.854 86.238 116 83C116.951 83.826 117.951 83.992 119 83.5C117.667 82.833 117.667 82.167 119 81.5C117.439 80.559 116.105 79.392 115 78C115.355 76.978 116.022 76.311 117 76Z" fill="#7B3CAE"/>
<path fill-rule="evenodd" clip-rule="evenodd" d="M91 67C100.32 68.337 108.987 71.337 117 76C116.022 76.311 115.355 76.978 115 78C116.105 79.392 117.439 80.559 119 81.5C117.667 82.167 117.667 82.833 119 83.5C117.951 83.992 116.951 83.826 116 83C113.854 86.238 111.188 86.738 108 84.5C108.951 83.782 109.117 82.949 108.5 82C107.554 84.288 106.387 86.455 105 88.5C112.255 88.421 115.755 91.921 115.5 99C113.131 100.36 110.964 102.026 109 104C109.847 105.561 109.514 107.061 108 108.5C105.847 108.599 104.181 109.433 103 111C97.514 105.831 91.514 101.497 85 98C83.011 95.59 80.678 93.423 78 91.5C78.626 90.75 79.126 89.916 79.5 89C80.225 89.559 81.058 89.892 82 90C86.001 88.929 89.834 87.596 93.5 86C93.874 85.084 94.374 84.25 95 83.5C93.209 83.085 91.876 82.085 91 80.5C97.531 78.141 97.197 76.141 90 74.5C90.744 73.461 91.744 72.961 93 73C99.647 75.172 106.314 77.005 113 78.5C105.735 74.272 98.068 71.105 90 69C89.237 68.232 88.237 67.732 87 67.5C88.293 67.01 89.627 66.843 91 67Z" fill="#6E3FAA"/>
<path fill-rule="evenodd" clip-rule="evenodd" d="M185 75C183.949 75.722 183.282 76.722 183 78C181.065 77.35 179.065 77.017 177 77C176.86 78.624 177.527 79.79 179 80.5C178.771 83.929 178.771 87.262 179 90.5C180.244 90.956 181.077 90.456 181.5 89C182.856 89.88 184.356 90.214 186 90C184 91.333 182 92.667 180 94C176.723 93.716 173.557 94.049 170.5 95C169.286 93.451 167.786 92.285 166 91.5C166.252 88.834 166.919 86.001 168 83C170.354 81.312 172.354 79.312 174 77C174.992 77.172 175.658 76.838 176 76C179.018 75.796 182.018 75.463 185 75Z" fill="#36958D"/>
<path fill-rule="evenodd" clip-rule="evenodd" d="M181 101C180.717 100.284 180.384 99.451 180 98.5C178.333 98.167 176.667 97.833 175 97.5C176.733 96.311 178.4 95.144 180 94C185.865 91.865 191.865 90.031 198 88.5C211.491 87.386 224.824 88.386 238 91.5C244.583 94.425 249.416 98.925 252.5 105C246.224 99.013 238.724 95.513 230 94.5C212.973 92.182 196.64 94.349 181 101Z" fill="#3E9296"/>
<path fill-rule="evenodd" clip-rule="evenodd" d="M223 85C236.667 85.037 247.667 90.371 256 101C257.892 107.874 258.392 114.874 257.5 122C257.117 122.556 256.617 122.889 256 123C256.221 114.061 252.221 107.895 244 104.5C236.751 103.52 229.751 104.353 223 107C217.809 105.334 212.309 103.667 206.5 102C204.456 103.272 202.622 102.939 201 101C199.686 101.813 198.519 102.813 197.5 104C196.809 101.609 195.809 101.609 194.5 104C194.167 103.667 193.833 103.333 193.5 103C189.9 105.146 186.067 106.813 182 108C176.375 109.751 171.541 112.751 167.5 117C166.5 115.667 165.5 115.667 164.5 117C164.268 115.763 163.768 114.763 163 114C168.441 108.892 174.441 104.559 181 101C196.64 94.349 212.973 92.182 230 94.5C238.724 95.513 246.224 99.013 252.5 105C249.416 98.925 244.583 94.425 238 91.5C224.824 88.386 211.491 87.386 198 88.5C191.865 90.031 185.865 91.865 180 94C182 92.667 184 91.333 186 90C191.051 88.489 196.051 87.155 201 86C208.277 85.07 215.61 84.736 223 85Z" fill="#03536F"/>
<path fill-rule="evenodd" clip-rule="evenodd" d="M168 83C166.919 86.001 166.252 88.834 166 91.5C167.786 92.285 169.286 93.451 170.5 95C173.557 94.049 176.723 93.716 180 94C178.4 95.144 176.733 96.311 175 97.5C176.667 97.833 178.333 98.167 180 98.5C180.384 99.451 180.717 100.284 181 101C174.441 104.559 168.441 108.892 163 114C158.64 117.694 154.64 121.694 151 126C153.773 119.505 156.44 113.005 159 106.5C158.406 106.036 157.739 105.869 157 106C160.687 102.311 164.02 98.311 167 94C163.732 93.013 160.398 92.68 157 93C160.043 88.956 163.709 85.623 168 83Z" fill="#4F899A"/>
<path fill-rule="evenodd" clip-rule="evenodd" d="M31 97C32.333 97 33.667 97 35 97C32.979 98.69 33.312 100.523 36 102.5C39.362 104.093 42.696 104.759 46 104.5C50.546 107.076 53.546 110.909 55 116C61.44 123.359 67.773 130.859 74 138.5C71.16 140.908 71.494 142.741 75 144C76.719 141.956 78.386 139.956 80 138C78.782 142.104 76.782 145.771 74 149C70.043 151.622 66.376 154.622 63 158C63.548 156.106 64.548 154.44 66 153C65.791 152.414 65.457 151.914 65 151.5C67.416 150.839 69.082 149.339 70 147C67.108 140.211 62.108 135.711 55 133.5C48.257 126.238 47.424 127.072 52.5 136C55.04 138.205 57.207 140.705 59 143.5C56.902 143.514 55.069 143.347 53.5 143C51.721 145.776 50.721 145.443 50.5 142C48.378 144.637 47.045 147.637 46.5 151C46.317 148.135 45.817 145.469 45 143C45.166 133.328 45 123.661 44.5 114C40.77 113.04 36.937 112.707 33 113C33 112.333 32.667 112 32 112C30.922 107.342 29.589 102.842 28 98.5C29.237 98.268 30.237 97.768 31 97Z" fill="#02548B"/>
<path fill-rule="evenodd" clip-rule="evenodd" d="M270 98C269.427 109.143 265.094 118.476 257 126C256.114 125.175 255.781 124.175 256 123C256.617 122.889 257.117 122.556 257.5 122C258.392 114.874 257.892 107.874 256 101C259.604 99.979 263.271 99.979 267 101C266.851 102.052 267.017 103.052 267.5 104C268.066 101.777 268.9 99.777 270 98Z" fill="#25A472"/>
<path fill-rule="evenodd" clip-rule="evenodd" d="M31 97C30.237 97.768 29.237 98.268 28 98.5C29.589 102.842 30.922 107.342 32 112C31.667 112 31.333 112 31 112C29.473 115.713 28.473 119.713 28 124C24.844 125.356 21.511 127.023 18 129C18 118.333 18 107.667 18 97C22.333 97 26.667 97 31 97Z" fill="#1C55AE"/>
<path fill-rule="evenodd" clip-rule="evenodd" d="M157 93C160.398 92.68 163.732 93.013 167 94C164.02 98.311 160.687 102.311 157 106C154.333 109 151.667 112 149 115C149 115.667 148.667 116 148 116C147.278 115.582 146.778 114.916 146.5 114C144.113 115.413 141.78 116.08 139.5 116C135.027 114.671 130.861 112.671 127 110C124.564 111.391 123.898 110.891 125 108.5C126.333 108.167 127.667 107.833 129 107.5C127.764 106.415 126.431 105.582 125 105C128.208 101.105 131.541 97.271 135 93.5C142.326 93 149.659 92.834 157 93Z" fill="#8EC162"/>
<path fill-rule="evenodd" clip-rule="evenodd" d="M35 97C46.67 98.167 57.337 102 67 108.5C69.539 110.87 71.872 113.37 74 116C76.225 119.735 79.058 123.068 82.5 126C83.118 130.387 82.284 134.387 80 138C78.386 139.956 76.719 141.956 75 144C71.494 142.741 71.16 140.908 74 138.5C67.773 130.859 61.44 123.359 55 116C53.546 110.909 50.546 107.076 46 104.5C42.696 104.759 39.362 104.093 36 102.5C33.312 100.523 32.979 98.69 35 97Z" fill="#064678"/>
<path fill-rule="evenodd" clip-rule="evenodd" d="M125 105C126.431 105.582 127.764 106.415 129 107.5C127.667 107.833 126.333 108.167 125 108.5C123.898 110.891 124.564 111.391 127 110C130.861 112.671 135.027 114.671 139.5 116C141.78 116.08 144.113 115.413 146.5 114C146.778 114.916 147.278 115.582 148 116C141.333 123.667 134.667 131.333 128 139C122.199 133.029 116.533 126.863 111 120.5C115.532 115.138 120.199 109.972 125 105Z" fill="#7FBB65"/>
<path fill-rule="evenodd" clip-rule="evenodd" d="M182 108C181.705 109.923 180.872 111.59 179.5 113C175.724 113.951 172.39 116.284 169.5 120C169.31 124.951 170.143 124.785 172 119.5C175.173 117.413 178.506 115.579 182 114C182.38 115.521 182.546 117.187 182.5 119C185.167 118.583 188 118.083 191 117.5C186.623 120.863 181.956 123.863 177 126.5C181.533 126.899 186.2 126.566 191 125.5C185.552 128.843 179.885 131.676 174 134C172.938 134.925 172.938 135.925 174 137C173.333 137.667 172.667 138.333 172 139C172 138.333 171.667 138 171 138C172.028 136.713 171.695 135.546 170 134.5C170.687 133.338 170.853 132.172 170.5 131C168.824 132.815 167.991 134.649 168 136.5C164.511 135.423 164.177 133.423 167 130.5C166.518 129.492 166.352 128.325 166.5 127C163.379 130.28 160.879 133.947 159 138C157.746 134.685 158.079 131.518 160 128.5C159.5 128 159 127.5 158.5 127C154.886 131.232 152.886 135.899 152.5 141C151.013 140.247 150.846 139.414 152 138.5C151.196 135.383 150.53 132.216 150 129C149.763 127.709 150.096 126.709 151 126C154.64 121.694 158.64 117.694 163 114C163.768 114.763 164.268 115.763 164.5 117C165.5 115.667 166.5 115.667 167.5 117C171.541 112.751 176.375 109.751 182 108Z" fill="#12668B"/>
<path fill-rule="evenodd" clip-rule="evenodd" d="M33 113C36.937 112.707 40.77 113.04 44.5 114C45 123.661 45.166 133.328 45 143C45 150 45 157 45 164C47.969 164.829 50.969 164.995 54 164.5C56.217 162.777 58.55 161.277 61 160C67.464 157.539 72.798 153.539 77 148C80.816 146.591 84.15 144.424 87 141.5C88.249 140.76 89.249 140.927 90 142C80.354 149.646 71.688 158.312 64 168C62 169.667 60 171.333 58 173C49.333 173 40.667 173 32 173C31.67 152.826 32.003 132.826 33 113Z" fill="#F3F5F5"/>
<path fill-rule="evenodd" clip-rule="evenodd" d="M223 107C212.436 113.41 204.103 122.076 198 133C197.026 131.865 195.859 130.865 194.5 130C192.333 132.833 189.833 135.333 187 137.5C186.333 138.167 185.667 138.167 185 137.5C186.196 136.846 186.196 136.346 185 136C182.917 137.459 180.75 138.792 178.5 140C177.1 138.752 175.6 137.752 174 137C172.938 135.925 172.938 134.925 174 134C179.885 131.676 185.552 128.843 191 125.5C186.2 126.566 181.533 126.899 177 126.5C181.956 123.863 186.623 120.863 191 117.5C188 118.083 185.167 118.583 182.5 119C182.546 117.187 182.38 115.521 182 114C178.506 115.579 175.173 117.413 172 119.5C170.143 124.785 169.31 124.951 169.5 120C172.39 116.284 175.724 113.951 179.5 113C180.872 111.59 181.705 109.923 182 108C186.067 106.813 189.9 105.146 193.5 103C193.833 103.333 194.167 103.667 194.5 104C195.809 101.609 196.809 101.609 197.5 104C198.519 102.813 199.686 101.813 201 101C202.622 102.939 204.456 103.272 206.5 102C212.309 103.667 217.809 105.334 223 107Z" fill="#15708D"/>
<path fill-rule="evenodd" clip-rule="evenodd" d="M149 115C149.543 115.06 149.876 115.393 150 116C146.011 126.294 142.011 136.627 138 147C139.78 151.117 142.78 153.783 147 155C147 156.667 147 158.333 147 160C140.325 153.325 133.992 146.325 128 139C134.667 131.333 141.333 123.667 148 116C148.667 116 149 115.667 149 115Z" fill="#163B7B"/>
<path fill-rule="evenodd" clip-rule="evenodd" d="M31 112C31.333 112 31.667 112 32 112C32.667 112 33 112.333 33 113C32.003 132.826 31.67 152.826 32 173C40.667 173 49.333 173 58 173C58 173.667 57.6671 174 57.0001 174C48.6671 174 40.3331 174 32.0001 174C31.0031 153.507 30.669 132.84 31 112Z" fill="#A4A5CF"/>
<path fill-rule="evenodd" clip-rule="evenodd" d="M171 138C165.211 147.573 160.544 157.573 157 168C155.092 165.188 153.425 162.188 152 159C151.655 149.971 150.322 141.471 148 133.5C147.807 131.492 148.474 129.992 150 129C150.53 132.216 151.196 135.383 152 138.5C150.846 139.414 151.013 140.247 152.5 141C152.886 135.899 154.886 131.232 158.5 127C159 127.5 159.5 128 160 128.5C158.079 131.518 157.746 134.685 159 138C160.879 133.947 163.379 130.28 166.5 127C166.352 128.325 166.518 129.492 167 130.5C164.177 133.423 164.511 135.423 168 136.5C167.991 134.649 168.824 132.815 170.5 131C170.853 132.172 170.687 133.338 170 134.5C171.695 135.546 172.028 136.713 171 138Z" fill="#265C8A"/>
<path fill-rule="evenodd" clip-rule="evenodd" d="M63 158C62 158.333 61.333 159 61 160C58.55 161.277 56.217 162.777 54 164.5C50.969 164.995 47.969 164.829 45 164C45 157 45 150 45 143C45.817 145.469 46.317 148.135 46.5 151C47.045 147.637 48.378 144.637 50.5 142C50.721 145.443 51.721 145.776 53.5 143C55.069 143.347 56.902 143.514 59 143.5C57.207 140.705 55.04 138.205 52.5 136C47.424 127.072 48.257 126.238 55 133.5C62.108 135.711 67.108 140.211 70 147C69.082 149.339 67.416 150.839 65 151.5C65.457 151.914 65.791 152.414 66 153C64.548 154.44 63.548 156.106 63 158Z" fill="#05608F"/>
<path fill-rule="evenodd" clip-rule="evenodd" d="M74 116C78.298 119.796 82.464 123.796 86.5 128C96.835 140.5 107.335 152.833 118 165C116.722 164.718 115.722 164.051 115 163C113.458 162.199 111.792 161.866 110 162C109.658 161.162 108.992 160.828 108 161C102.028 154.693 96.028 148.36 90 142C89.249 140.927 88.249 140.76 87 141.5C84.15 144.424 80.816 146.591 77 148C75.891 148.057 74.891 148.39 74 149C76.782 145.771 78.782 142.104 80 138C82.284 134.387 83.118 130.387 82.5 126C79.058 123.068 76.225 119.735 74 116Z" fill="#4B2B90"/>
<path fill-rule="evenodd" clip-rule="evenodd" d="M157 106C157.739 105.869 158.406 106.036 159 106.5C156.44 113.005 153.773 119.505 151 126C150.096 126.709 149.763 127.709 150 129C148.474 129.992 147.807 131.492 148 133.5C150.322 141.471 151.655 149.971 152 159C150.426 157.398 149.759 155.398 150 153C148.321 152.785 147.321 153.452 147 155C142.78 153.783 139.78 151.117 138 147C142.011 136.627 146.011 126.294 150 116C149.876 115.393 149.543 115.06 149 115C151.667 112 154.333 109 157 106Z" fill="#214F85"/>
<path fill-rule="evenodd" clip-rule="evenodd" d="M77 148C72.798 153.539 67.464 157.539 61 160C61.333 159 62 158.333 63 158C66.376 154.622 70.043 151.622 74 149C74.891 148.39 75.891 148.057 77 148Z" fill="#EFC8EF"/>
<path fill-rule="evenodd" clip-rule="evenodd" d="M198 133C188.577 150.421 184.744 169.088 186.5 189C174.252 174.429 169.419 157.763 172 139C172.667 138.333 173.333 137.667 174 137C175.6 137.752 177.1 138.752 178.5 140C180.75 138.792 182.917 137.459 185 136C186.196 136.346 186.196 136.846 185 137.5C185.667 138.167 186.333 138.167 187 137.5C189.833 135.333 192.333 132.833 194.5 130C195.859 130.865 197.026 131.865 198 133Z" fill="#487696"/>
<path fill-rule="evenodd" clip-rule="evenodd" d="M90 142C96.028 148.36 102.028 154.693 108 161C108.912 162.238 109.079 163.572 108.5 165C102.465 171.203 96.298 177.203 90 183C89.791 181.578 89.291 180.245 88.5 179C87.5 179.333 86.5 179.667 85.5 180C83.7 178.355 81.7 177.022 79.5 176C79.167 177.333 78.833 178.667 78.5 180C76.412 179.192 74.412 178.192 72.5 177C72.167 177.667 71.833 178.333 71.5 179C71.702 175.626 72.702 172.626 74.5 170C74.167 170.333 73.833 170.667 73.5 171C70.297 168.98 67.131 167.98 64 168C71.688 158.312 80.354 149.646 90 142Z" fill="#6AB464"/>
<path fill-rule="evenodd" clip-rule="evenodd" d="M152 159C153.425 162.188 155.092 165.188 157 168C157.149 169.052 156.983 170.052 156.5 171C153.326 167.302 150.159 163.635 147 160C147 158.333 147 156.667 147 155C147.321 153.452 148.321 152.785 150 153C149.759 155.398 150.426 157.398 152 159Z" fill="#BB31A2"/>
<path fill-rule="evenodd" clip-rule="evenodd" d="M64 168C67.131 167.98 70.297 168.98 73.5 171C73.833 170.667 74.167 170.333 74.5 170C72.702 172.626 71.702 175.626 71.5 179C71.833 178.333 72.167 177.667 72.5 177C74.412 178.192 76.412 179.192 78.5 180C78.833 178.667 79.167 177.333 79.5 176C81.7 177.022 83.7 178.355 85.5 180C86.5 179.667 87.5 179.333 88.5 179C89.291 180.245 89.791 181.578 90 183C83.614 189.719 76.614 195.719 69 201C68.727 199.049 69.393 197.549 71 196.5C69.562 196.281 68.229 195.781 67 195C67.388 192.859 67.388 190.859 67 189C65.209 187.087 63.209 185.42 61 184C58.661 185.224 56.328 185.224 54 184C55.333 182.88 55.833 181.547 55.5 180C52.645 182.822 51.811 182.489 53 179C54.333 177.333 55.6671 175.667 57.0001 174C57.6671 174 58 173.667 58 173C60 171.333 62 169.667 64 168Z" fill="#52AE66"/>
<path fill-rule="evenodd" clip-rule="evenodd" d="M31 112C30.669 132.84 31.0031 153.507 32.0001 174C36.1471 174.825 40.481 175.325 45 175.5C42.549 178.133 39.549 179.8 36 180.5C32.594 185.14 28.261 188.64 23 191C21.306 193.054 20.139 195.388 19.5 198C19.331 183.161 18.831 168.494 18 154C18 145.667 18 137.333 18 129C21.511 127.023 24.844 125.356 28 124C28.473 119.713 29.473 115.713 31 112Z" fill="#293296"/>
<path fill-rule="evenodd" clip-rule="evenodd" d="M111 163C112.526 163.992 113.193 165.492 113 167.5C112.5 171 112 174.5 111.5 178C109.752 179.635 108.585 181.635 108 184C107.308 183.475 106.808 182.808 106.5 182C104.788 186.349 103.621 190.849 103 195.5C103.89 198.284 104.057 201.117 103.5 204C103.917 205.256 104.75 205.923 106 206C104.319 207.508 102.319 208.508 100 209C97.251 208.774 94.584 209.107 92 210C90.623 208.211 89.623 206.211 89 204C94.877 194.912 99.711 185.245 103.5 175C104.5 174 105.5 173 106.5 172C106.833 173.333 107.167 174.667 107.5 176C108.943 172.809 110.443 169.643 112 166.5C111.511 165.362 111.178 164.195 111 163Z" fill="#350D55"/>
<path fill-rule="evenodd" clip-rule="evenodd" d="M115 163C115.722 164.051 116.722 164.718 118 165C123.658 170.958 129.324 176.958 135 183C134.383 183.111 133.883 183.444 133.5 184C127.02 174.456 125.186 175.289 128 186.5C127.895 188.092 127.561 189.592 127 191C124.333 193.333 121.667 195.667 119 198C117.678 197.83 116.511 198.163 115.5 199C115 197.833 114.167 197 113 196.5C113.333 196.167 113.667 195.833 114 195.5C113.301 191.7 112.635 187.867 112 184C113.899 177.142 114.899 170.142 115 163Z" fill="#741486"/>
<path fill-rule="evenodd" clip-rule="evenodd" d="M110 162C111.792 161.866 113.458 162.199 115 163C114.899 170.142 113.899 177.142 112 184C112.635 187.867 113.301 191.7 114 195.5C113.667 195.833 113.333 196.167 113 196.5C114.167 197 115 197.833 115.5 199C116.511 198.163 117.678 197.83 119 198C115.201 201.452 110.868 204.118 106 206C104.75 205.923 103.917 205.256 103.5 204C104.057 201.117 103.89 198.284 103 195.5C103.621 190.849 104.788 186.349 106.5 182C106.808 182.808 107.308 183.475 108 184C108.585 181.635 109.752 179.635 111.5 178C112 174.5 112.5 171 113 167.5C113.193 165.492 112.526 163.992 111 163C110.333 163 110 162.667 110 162Z" fill="#460E64"/>
<path fill-rule="evenodd" clip-rule="evenodd" d="M143 192C148.044 191.673 153.044 192.006 158 193C157.876 193.607 157.543 193.94 157 194C152.333 193.333 147.667 192.667 143 192Z" fill="#DDAFDF"/>
<path fill-rule="evenodd" clip-rule="evenodd" d="M18 154C18.831 168.494 19.331 183.161 19.5 198C20.139 195.388 21.306 193.054 23 191C28.261 188.64 32.594 185.14 36 180.5C39.549 179.8 42.549 178.133 45 175.5C40.481 175.325 36.1471 174.825 32.0001 174C40.3331 174 48.6671 174 57.0001 174C55.6671 175.667 54.333 177.333 53 179C41.361 190.973 29.694 202.973 18 215C18 194.667 18 174.333 18 154Z" fill="#282382"/>
<path fill-rule="evenodd" clip-rule="evenodd" d="M53 179C51.811 182.489 52.645 182.822 55.5 180C55.833 181.547 55.333 182.88 54 184C56.328 185.224 58.661 185.224 61 184C63.209 185.42 65.209 187.087 67 189C67.388 190.859 67.388 192.859 67 195C68.229 195.781 69.562 196.281 71 196.5C69.393 197.549 68.727 199.049 69 201C61.174 205.249 53.174 208.916 45 212C36.064 214.054 27.064 215.721 18 217C18 216.333 18 215.667 18 215C29.694 202.973 41.361 190.973 53 179Z" fill="#31A86A"/>
<path fill-rule="evenodd" clip-rule="evenodd" d="M108 161C108.992 160.828 109.658 161.162 110 162C110 162.667 110.333 163 111 163C111.178 164.195 111.511 165.362 112 166.5C110.443 169.643 108.943 172.809 107.5 176C107.167 174.667 106.833 173.333 106.5 172C105.5 173 104.5 174 103.5 175C99.711 185.245 94.877 194.912 89 204C89.623 206.211 90.623 208.211 92 210C94.584 209.107 97.251 208.774 100 209C82.249 216.298 63.583 219.964 44 220C39.487 219.999 35.153 219.666 31 219C36.011 219.166 41.011 218.999 46 218.5C43.333 218.167 40.667 217.833 38 217.5C40.667 216.833 40.667 216.167 38 215.5C40.425 214.287 42.759 213.121 45 212C53.174 208.916 61.174 205.249 69 201C76.614 195.719 83.614 189.719 90 183C96.298 177.203 102.465 171.203 108.5 165C109.079 163.572 108.912 162.238 108 161Z" fill="#250E43"/>
<path fill-rule="evenodd" clip-rule="evenodd" d="M135 183C137.695 186.026 140.362 189.026 143 192C147.667 192.667 152.333 193.333 157 194C144.454 205.192 129.954 212.858 113.5 217C112.833 216.333 112.833 215.667 113.5 215C120.332 208.339 124.832 200.339 127 191C127.561 189.592 127.895 188.092 128 186.5C125.186 175.289 127.02 174.456 133.5 184C133.883 183.444 134.383 183.111 135 183Z" fill="#9624A2"/>
<path fill-rule="evenodd" clip-rule="evenodd" d="M45 212C42.759 213.121 40.425 214.287 38 215.5C40.667 216.167 40.667 216.833 38 217.5C40.667 217.833 43.333 218.167 46 218.5C41.011 218.999 36.011 219.166 31 219C26.206 219.597 21.873 218.93 18 217C27.064 215.721 36.064 214.054 45 212Z" fill="#161229"/>
</svg>
