<svg width="224" height="214" viewBox="0 0 224 214" fill="none" xmlns="http://www.w3.org/2000/svg">
<path fill-rule="evenodd" clip-rule="evenodd" d="M68.9998 0.145386C83.6668 0.145386 98.3328 0.145386 113 0.145386C120.816 1.13739 128.816 1.47139 137 1.14539C134.531 1.96239 131.865 2.46239 129 2.64539C116.554 13.4614 102.888 22.1274 87.9998 28.6454C98.4668 29.1864 98.4668 30.1864 87.9998 31.6454C94.8458 31.8174 101.513 32.3174 108 33.1454C86.3328 33.1454 64.6668 33.1454 42.9998 33.1454C43.5578 31.8554 44.5578 31.0224 45.9998 30.6454C48.5428 30.5054 50.8768 29.8394 52.9998 28.6454C56.2058 28.3494 59.3718 27.8494 62.4998 27.1454C63.1668 27.8124 63.8328 28.4784 64.4998 29.1454C72.8218 29.5094 80.3218 27.3434 86.9998 22.6454C84.5688 22.3934 82.2348 22.8934 79.9998 24.1454C75.8878 22.0264 76.2218 20.6934 80.9998 20.1454C81.8858 19.3204 82.2188 18.3204 81.9998 17.1454C83.6988 17.3054 85.3658 17.1394 86.9998 16.6454C86.0488 15.9274 85.8828 15.0944 86.4998 14.1454C87.5488 15.1624 88.7158 15.3294 89.9998 14.6454C95.3458 9.97939 101.012 5.81239 107 2.14539C95.0178 1.14639 83.0178 0.813386 70.9998 1.14539C70.0078 1.31739 69.3418 0.983386 68.9998 0.145386Z" fill="#832FB4"/>
<path fill-rule="evenodd" clip-rule="evenodd" d="M137 1.14539C147.333 1.14539 157.667 1.14539 168 1.14539C161.665 2.05039 155.332 3.55039 149 5.64539C143.362 10.7954 137.362 15.4624 131 19.6454C131.5 20.1454 132 20.6454 132.5 21.1454C134.108 19.5454 135.941 18.2124 138 17.1454C140.241 17.1434 142.574 17.4774 145 18.1454C142.173 21.8044 138.84 24.9714 135 27.6454C133.413 28.5074 131.746 29.1744 130 29.6454C128.667 30.6454 128.667 31.6454 130 32.6454C125.008 32.4844 120.008 31.9844 115 31.1454C113.333 31.3124 111.667 31.4784 110 31.6454C109.444 32.0284 109.111 32.5284 109 33.1454C108.667 33.1454 108.333 33.1454 108 33.1454C101.513 32.3174 94.8458 31.8174 87.9998 31.6454C98.4668 30.1864 98.4668 29.1864 87.9998 28.6454C102.888 22.1274 116.554 13.4614 129 2.64539C131.865 2.46239 134.531 1.96239 137 1.14539Z" fill="#6D26AD"/>
<path fill-rule="evenodd" clip-rule="evenodd" d="M49.9998 0.145392C54.8158 0.971392 59.8158 1.47139 64.9998 1.64539C59.9418 1.84339 55.6088 3.67639 51.9998 7.14539C50.6368 7.84339 49.4708 7.84339 48.4998 7.14539C41.1718 11.8924 33.3388 15.7254 24.9998 18.6454C20.5768 24.1324 15.0768 26.9654 8.49975 27.1454C5.70375 28.7364 5.37075 30.7364 7.49975 33.1454C9.55875 33.1994 11.7258 33.0324 13.9998 32.6454C11.0378 33.8264 8.03775 35.6594 4.99975 38.1454C4.41375 37.9364 3.91375 37.6024 3.49975 37.1454C2.89175 38.7994 2.39175 40.4664 1.99975 42.1454C1.66675 42.1454 1.33275 42.1454 0.999753 42.1454C0.999753 35.8124 0.999753 29.4784 0.999753 23.1454C3.57775 12.7304 9.91075 5.56339 19.9998 1.64539C29.9198 0.222392 39.9198 -0.277608 49.9998 0.145392Z" fill="#CA4BD5"/>
<path fill-rule="evenodd" clip-rule="evenodd" d="M113 0.145386C142.002 -0.0216143 171.002 0.145404 200 0.645404C207.722 2.9904 213.722 7.4904 218 14.1454C216.948 13.9964 215.948 14.1624 215 14.6454C215.07 16.2694 215.57 18.1024 216.5 20.1454C219.597 20.9344 219.764 22.1014 217 23.6454C219.544 24.7444 219.544 25.9104 217 27.1454C216.173 25.4834 215.007 24.1504 213.5 23.1454C213.167 23.8124 212.833 24.4784 212.5 25.1454C211.202 24.0854 210.035 22.9194 209 21.6454C208.045 17.9244 207.712 14.4244 208 11.1454C204.784 16.8584 200.117 21.0244 194 23.6454C192.799 24.5484 191.965 25.7144 191.5 27.1454C190.369 26.0414 189.535 26.3744 189 28.1454C190.975 29.2234 192.808 28.8904 194.5 27.1454C196.915 27.7774 199.082 28.7774 201 30.1454C195.898 30.7664 190.898 31.4324 186 32.1454C185.179 35.2864 184.679 38.6204 184.5 42.1454C184.306 39.5724 183.639 36.9064 182.5 34.1454C182.126 35.0614 181.626 35.8954 181 36.6454C177.901 37.0324 175.234 38.1994 173 40.1454C168.798 39.8284 164.798 40.1624 161 41.1454C156.352 42.3524 151.686 42.3524 147 41.1454C145.206 39.7884 143.206 38.6224 141 37.6454C146.341 37.1844 151.508 36.0184 156.5 34.1454C158.67 34.9794 160.67 35.3124 162.5 35.1454C162.261 31.4614 163.761 28.7944 167 27.1454C171.515 25.9964 176.182 24.3294 181 22.1454C184.118 15.5314 187.118 8.5314 190 1.1454C182.667 1.1454 175.333 1.14539 168 1.14539C157.667 1.14539 147.333 1.14539 137 1.14539C128.816 1.47139 120.816 1.13739 113 0.145386Z" fill="#45179B"/>
<path fill-rule="evenodd" clip-rule="evenodd" d="M49.9998 0.145392C56.3328 0.145392 62.6668 0.145386 68.9998 0.145386C69.3418 0.983386 70.0078 1.31739 70.9998 1.14539C67.3238 2.32339 63.6567 3.82339 59.9997 5.64539C55.5157 9.72339 50.5157 13.0564 44.9997 15.6454C50.4847 15.2134 55.3177 13.0464 59.4997 9.14539C59.8327 9.47839 60.1667 9.81239 60.4997 10.1454C62.2707 5.43739 65.4367 4.10339 69.9997 6.14539C68.4217 6.94339 66.7557 7.44339 64.9997 7.64539C55.6607 15.6614 45.3267 21.9954 33.9997 26.6454C30.2247 29.4164 26.7247 32.5834 23.4997 36.1454C21.2087 35.3344 19.3747 36.1684 17.9997 38.6454C14.4667 40.1454 10.9667 41.6454 7.49974 43.1454C5.62574 40.8694 3.95874 41.2024 2.49974 44.1454C2.03574 43.5514 1.86875 42.8844 1.99975 42.1454C2.39175 40.4664 2.89175 38.7994 3.49975 37.1454C3.91375 37.6024 4.41375 37.9364 4.99975 38.1454C8.03775 35.6594 11.0378 33.8264 13.9998 32.6454C11.7258 33.0324 9.55875 33.1994 7.49975 33.1454C5.37075 30.7364 5.70375 28.7364 8.49975 27.1454C15.0768 26.9654 20.5768 24.1324 24.9998 18.6454C33.3388 15.7254 41.1718 11.8924 48.4998 7.14539C49.4708 7.84339 50.6368 7.84339 51.9998 7.14539C55.6088 3.67639 59.9418 1.84339 64.9998 1.64539C59.8158 1.47139 54.8158 0.971392 49.9998 0.145392Z" fill="#B345CA"/>
<path fill-rule="evenodd" clip-rule="evenodd" d="M168 1.14539C175.333 1.14539 182.667 1.1454 190 1.1454C187.118 8.5314 184.118 15.5314 181 22.1454C176.182 24.3294 171.515 25.9964 167 27.1454C163.761 28.7944 162.261 31.4614 162.5 35.1454C160.67 35.3124 158.67 34.9794 156.5 34.1454C151.508 36.0184 146.341 37.1844 141 37.6454C143.206 38.6224 145.206 39.7884 147 41.1454C139.942 40.7814 132.942 39.7814 126 38.1454C120.713 35.4974 115.047 33.8304 109 33.1454C109.111 32.5284 109.444 32.0284 110 31.6454C111.667 31.4784 113.333 31.3124 115 31.1454C120.008 31.9844 125.008 32.4844 130 32.6454C128.667 31.6454 128.667 30.6454 130 29.6454C131.746 29.1744 133.413 28.5074 135 27.6454C138.84 24.9714 142.173 21.8044 145 18.1454C142.574 17.4774 140.241 17.1434 138 17.1454C135.941 18.2124 134.108 19.5454 132.5 21.1454C132 20.6454 131.5 20.1454 131 19.6454C137.362 15.4624 143.362 10.7954 149 5.64539C155.332 3.55039 161.665 2.05039 168 1.14539Z" fill="#551FA3"/>
<path fill-rule="evenodd" clip-rule="evenodd" d="M32.9998 34.1454C36.1248 33.1664 39.4578 32.8324 42.9998 33.1454C64.6668 33.1454 86.3328 33.1454 108 33.1454C108.333 33.1454 108.667 33.1454 109 33.1454C115.047 33.8304 120.713 35.4974 126 38.1454C121.038 36.9884 116.038 35.9884 111 35.1454C85.0318 34.1724 59.0318 33.8394 32.9998 34.1454Z" fill="#542C7F"/>
<path fill-rule="evenodd" clip-rule="evenodd" d="M32.9998 34.1454C59.0318 33.8394 85.0318 34.1724 111 35.1454C84.4628 35.6904 57.7957 36.5244 30.9997 37.6454C27.9687 40.2044 25.8017 43.3714 24.4997 47.1454C23.9997 57.4734 23.8337 67.8064 23.9997 78.1454C23.0057 67.6584 22.6717 56.9914 22.9997 46.1454C24.5467 40.6034 27.8798 36.6034 32.9998 34.1454Z" fill="#86C6EE"/>
<path fill-rule="evenodd" clip-rule="evenodd" d="M218 14.1454C220.5 17.3054 221.833 20.9724 222 25.1454C222 38.1454 222 51.1454 222 64.1454C220.812 65.3294 219.645 65.3294 218.5 64.1454C216.049 60.5554 213.882 56.8884 212 53.1454C212 52.4784 212 51.8124 212 51.1454C207.848 50.0934 203.515 49.2594 199 48.6454C199.803 44.2314 200.303 39.7314 200.5 35.1454C200.649 37.9244 201.483 38.4244 203 36.6454C201.484 34.7484 200.817 32.5814 201 30.1454C199.082 28.7774 196.915 27.7774 194.5 27.1454C192.808 28.8904 190.975 29.2234 189 28.1454C189.535 26.3744 190.369 26.0414 191.5 27.1454C191.965 25.7144 192.799 24.5484 194 23.6454C200.117 21.0244 204.784 16.8584 208 11.1454C207.712 14.4244 208.045 17.9244 209 21.6454C210.035 22.9194 211.202 24.0854 212.5 25.1454C212.833 24.4784 213.167 23.8124 213.5 23.1454C215.007 24.1504 216.173 25.4834 217 27.1454C219.544 25.9104 219.544 24.7444 217 23.6454C219.764 22.1014 219.597 20.9344 216.5 20.1454C215.57 18.1024 215.07 16.2694 215 14.6454C215.948 14.1624 216.948 13.9964 218 14.1454Z" fill="#35148E"/>
<path fill-rule="evenodd" clip-rule="evenodd" d="M111 35.1454C116.038 35.9884 121.038 36.9884 126 38.1454C131.359 40.3334 136.692 42.8334 142 45.6454C145.8 47.6244 149.134 50.1244 152 53.1454C149.52 52.4034 147.187 51.4034 145 50.1454C138.414 45.3204 131.081 41.9874 123 40.1454C120.595 38.8774 117.928 38.2104 115 38.1454C106.182 37.1524 97.1817 36.8184 87.9997 37.1454C78.9997 37.1454 69.9997 37.1454 60.9997 37.1454C54.6577 36.9794 48.3247 37.1454 41.9997 37.6454C42.3327 37.9784 42.6667 38.3124 42.9997 38.6454C37.3117 40.4944 32.6447 43.8284 28.9997 48.6454C27.7067 49.1354 26.3727 49.3024 24.9997 49.1454C24.9997 55.4784 24.9997 61.8124 24.9997 68.1454C24.9997 72.1454 24.9997 76.1454 24.9997 80.1454C24.6667 80.1454 24.3327 80.1454 23.9997 80.1454C23.9997 79.4784 23.9997 78.8124 23.9997 78.1454C23.8337 67.8064 23.9997 57.4734 24.4997 47.1454C25.8017 43.3714 27.9687 40.2044 30.9997 37.6454C57.7957 36.5244 84.4628 35.6904 111 35.1454Z" fill="#798DDE"/>
<path fill-rule="evenodd" clip-rule="evenodd" d="M60.9997 37.1454C69.9997 37.1454 78.9997 37.1454 87.9997 37.1454C87.5467 38.1034 86.8808 38.9374 85.9998 39.6454C74.7008 45.1244 63.0348 49.7914 50.9998 53.6454C45.5148 58.6304 40.1808 63.7974 34.9998 69.1454C33.0468 70.4064 31.0468 71.5724 28.9998 72.6454C29.6908 73.7124 30.1908 74.8794 30.4998 76.1454C33.2868 74.5984 35.6198 72.5984 37.4998 70.1454C37.9998 70.6454 38.4998 71.1454 38.9998 71.6454C36.4858 74.0604 33.8188 76.2264 30.9998 78.1454C30.0208 79.4104 29.0208 80.7444 27.9998 82.1454C27.7428 79.0424 27.2428 76.0424 26.4998 73.1454C26.5098 76.9914 26.0097 79.3244 24.9997 80.1454C24.9997 76.1454 24.9997 72.1454 24.9997 68.1454C26.3057 67.7664 27.6388 67.4334 28.9998 67.1454C30.5218 65.4894 30.1888 64.3224 27.9998 63.6454C38.9518 54.3634 50.9518 46.6974 63.9998 40.6454C60.1268 41.6074 56.1268 42.2744 51.9998 42.6454C55.6998 41.8024 58.6997 39.9694 60.9997 37.1454Z" fill="#8271D6"/>
<path fill-rule="evenodd" clip-rule="evenodd" d="M115 38.1454C117.928 38.2104 120.595 38.8774 123 40.1454C121.071 39.8764 119.405 40.3764 118 41.6454C119 41.9784 120 42.3124 121 42.6454C113.353 44.9484 106.686 48.9484 101 54.6454C104 54.3124 107 53.9784 110 53.6454C109.172 54.5604 108.172 55.2264 107 55.6454C107.333 55.9784 107.667 56.3124 108 56.6454C105.825 57.8264 103.658 58.9934 101.5 60.1454C84.8218 58.0074 68.3218 58.0074 51.9998 60.1454C51.3328 60.1454 50.6668 60.1454 49.9998 60.1454C56.2578 58.3454 62.9248 57.5124 69.9998 57.6454C68.1988 57.3284 67.8658 56.6614 68.9998 55.6454C72.0948 54.9314 75.0948 53.9314 77.9998 52.6454C84.3618 49.1844 90.5288 45.3504 96.4998 41.1454C102.468 38.9184 108.634 37.9184 115 38.1454Z" fill="#8A53C8"/>
<path fill-rule="evenodd" clip-rule="evenodd" d="M70.9998 1.14539C83.0178 0.813386 95.0178 1.14639 107 2.14539C101.012 5.81239 95.3458 9.97939 89.9998 14.6454C88.7158 15.3294 87.5488 15.1624 86.4998 14.1454C85.8828 15.0944 86.0488 15.9274 86.9998 16.6454C85.3658 17.1394 83.6988 17.3054 81.9998 17.1454C82.2188 18.3204 81.8858 19.3204 80.9998 20.1454C76.2218 20.6934 75.8878 22.0264 79.9998 24.1454C82.2348 22.8934 84.5688 22.3934 86.9998 22.6454C80.3218 27.3434 72.8218 29.5094 64.4998 29.1454C63.8328 28.4784 63.1668 27.8124 62.4998 27.1454C59.3718 27.8494 56.2058 28.3494 52.9998 28.6454C50.8768 29.8394 48.5428 30.5054 45.9998 30.6454C44.5578 31.0224 43.5578 31.8554 42.9998 33.1454C39.4578 32.8324 36.1248 33.1664 32.9998 34.1454C27.8798 36.6034 24.5467 40.6034 22.9997 46.1454C22.6667 46.1454 22.3328 46.1454 21.9998 46.1454C21.5718 51.9864 20.0718 57.6534 17.4998 63.1454C12.6978 63.8264 8.19775 65.8264 3.99975 69.1454C3.21875 70.3744 2.71875 71.7074 2.49975 73.1454C1.85175 62.8164 1.35175 52.4824 0.999753 42.1454C1.33275 42.1454 1.66675 42.1454 1.99975 42.1454C1.86875 42.8844 2.03574 43.5514 2.49974 44.1454C3.95874 41.2024 5.62574 40.8694 7.49974 43.1454C10.9667 41.6454 14.4667 40.1454 17.9997 38.6454C19.3747 36.1684 21.2087 35.3344 23.4997 36.1454C26.7247 32.5834 30.2247 29.4164 33.9997 26.6454C45.3267 21.9954 55.6607 15.6614 64.9997 7.64539C66.7557 7.44339 68.4217 6.94339 69.9997 6.14539C65.4367 4.10339 62.2707 5.43739 60.4997 10.1454C60.1667 9.81239 59.8327 9.47839 59.4997 9.14539C55.3177 13.0464 50.4847 15.2134 44.9997 15.6454C50.5157 13.0564 55.5157 9.72339 59.9997 5.64539C63.6567 3.82339 67.3238 2.32339 70.9998 1.14539Z" fill="#9D3ABF"/>
<path fill-rule="evenodd" clip-rule="evenodd" d="M60.9997 37.1454C58.6997 39.9694 55.6998 41.8024 51.9998 42.6454C56.1268 42.2744 60.1268 41.6074 63.9998 40.6454C50.9518 46.6974 38.9518 54.3634 27.9998 63.6454C30.1888 64.3224 30.5218 65.4894 28.9998 67.1454C27.6388 67.4334 26.3057 67.7664 24.9997 68.1454C24.9997 61.8124 24.9997 55.4784 24.9997 49.1454C26.3727 49.3024 27.7067 49.1354 28.9997 48.6454C32.6447 43.8284 37.3117 40.4944 42.9997 38.6454C42.6667 38.3124 42.3327 37.9784 41.9997 37.6454C48.3247 37.1454 54.6577 36.9794 60.9997 37.1454Z" fill="#8380DC"/>
<path fill-rule="evenodd" clip-rule="evenodd" d="M123 40.1454C131.081 41.9874 138.414 45.3204 145 50.1454C144.048 51.7574 143.714 53.2574 144 54.6454C135.184 59.2194 126.517 64.0534 118 69.1454C112.835 65.5644 107.169 63.0644 101 61.6454C84.7018 60.2764 68.3688 59.7764 51.9998 60.1454C68.3218 58.0074 84.8218 58.0074 101.5 60.1454C103.658 58.9934 105.825 57.8264 108 56.6454C107.667 56.3124 107.333 55.9784 107 55.6454C108.172 55.2264 109.172 54.5604 110 53.6454C107 53.9784 104 54.3124 101 54.6454C106.686 48.9484 113.353 44.9484 121 42.6454C120 42.3124 119 41.9784 118 41.6454C119.405 40.3764 121.071 39.8764 123 40.1454Z" fill="#7740BE"/>
<path fill-rule="evenodd" clip-rule="evenodd" d="M212 51.1454C212 51.8124 212 52.4784 212 53.1454C212 56.4784 212 59.8124 212 63.1454C207.333 63.1454 202.667 63.1454 198 63.1454C198 59.1454 198 55.1454 198 51.1454C202.667 51.1454 207.333 51.1454 212 51.1454Z" fill="#1DA6C7"/>
<path fill-rule="evenodd" clip-rule="evenodd" d="M158 59.1454C169.02 58.8134 180.02 59.1464 191 60.1454C190.645 61.1674 189.978 61.8344 189 62.1454C184.212 60.8174 179.046 60.1504 173.5 60.1454C168.333 60.3124 163.167 60.4784 158 60.6454C156.711 62.4474 155.044 63.6144 153 64.1454C154.333 62.1454 156 60.4784 158 59.1454Z" fill="#D1EB9C"/>
<path fill-rule="evenodd" clip-rule="evenodd" d="M49.9998 60.1454C50.6668 60.1454 51.3328 60.1454 51.9998 60.1454C68.3688 59.7764 84.7018 60.2764 101 61.6454C107.169 63.0644 112.835 65.5644 118 69.1454C123.677 73.8234 128.677 79.1563 133 85.1453C131.307 84.1703 129.807 82.8373 128.5 81.1453C119.424 82.1883 110.257 83.8553 101 86.1453C97.5878 84.2863 93.9218 83.1193 89.9998 82.6453C82.6738 82.1453 75.3408 81.9793 67.9998 82.1453C67.9998 96.8123 67.9998 111.478 67.9998 126.145C71.8118 126.969 75.8118 127.469 79.9998 127.645C70.3538 128.013 60.8538 129.179 51.4998 131.145C51.1668 130.812 50.8328 130.478 50.4998 130.145C50.1668 132.145 49.8328 134.145 49.4998 136.145C49.3088 133.937 48.8088 131.937 47.9998 130.145C47.9998 127.478 47.9998 124.812 47.9998 122.145C47.3448 101.118 48.0118 80.4514 49.9998 60.1454Z" fill="#F7F7F8"/>
<path fill-rule="evenodd" clip-rule="evenodd" d="M201 30.1454C200.817 32.5814 201.484 34.7484 203 36.6454C201.483 38.4244 200.649 37.9244 200.5 35.1454C200.303 39.7314 199.803 44.2314 199 48.6454C203.515 49.2594 207.848 50.0934 212 51.1454C207.333 51.1454 202.667 51.1454 198 51.1454C198 55.1454 198 59.1454 198 63.1454C202.667 63.1454 207.333 63.1454 212 63.1454C212 59.8124 212 56.4784 212 53.1454C213.882 56.8884 216.049 60.5554 218.5 64.1454C219.645 65.3294 220.812 65.3294 222 64.1454C222 69.8124 222 75.4784 222 81.1454C221.667 81.1454 221.333 81.1454 221 81.1454C221.299 79.0414 220.966 77.0414 220 75.1454C219.249 76.0214 218.749 77.0214 218.5 78.1454C218.167 77.8124 217.833 77.4784 217.5 77.1454C213.24 78.4534 209.074 79.9534 205 81.6454C196.165 87.8114 186.665 92.6444 176.5 96.1454C173.486 93.1984 172.152 89.5324 172.5 85.1454C169.81 87.4994 169.31 86.8324 171 83.1454C177 76.1454 183 69.1454 189 62.1454C189.978 61.8344 190.645 61.1674 191 60.1454C180.02 59.1464 169.02 58.8134 158 59.1454C156.878 56.2074 154.878 54.2074 152 53.1454C149.134 50.1244 145.8 47.6244 142 45.6454C136.692 42.8334 131.359 40.3334 126 38.1454C132.942 39.7814 139.942 40.7814 147 41.1454C151.686 42.3524 156.352 42.3524 161 41.1454C161 45.1454 161 49.1454 161 53.1454C165.333 53.1454 169.667 53.1454 174 53.1454C174.663 51.1724 174.996 49.0064 175 46.6454C174.967 44.0354 174.3 41.8684 173 40.1454C175.234 38.1994 177.901 37.0324 181 36.6454C181.626 35.8954 182.126 35.0614 182.5 34.1454C183.639 36.9064 184.306 39.5724 184.5 42.1454C184.679 38.6204 185.179 35.2864 186 32.1454C190.898 31.4324 195.898 30.7664 201 30.1454Z" fill="#2C137A"/>
<path fill-rule="evenodd" clip-rule="evenodd" d="M161 41.1454C164.798 40.1624 168.798 39.8284 173 40.1454C174.3 41.8684 174.967 44.0354 175 46.6454C174.996 49.0064 174.663 51.1724 174 53.1454C174 49.1454 174 45.1453 174 41.1453C169.667 41.1453 165.333 41.1454 161 41.1454Z" fill="#2D69AA"/>
<path fill-rule="evenodd" clip-rule="evenodd" d="M161 41.1454C165.333 41.1454 169.667 41.1453 174 41.1453C174 45.1453 174 49.1454 174 53.1454C169.667 53.1454 165.333 53.1454 161 53.1454C161 49.1454 161 45.1454 161 41.1454Z" fill="#1DA8CB"/>
<path fill-rule="evenodd" clip-rule="evenodd" d="M186 32.1454C190.333 32.1454 194.667 32.1454 199 32.1454C199 36.1454 199 40.1454 199 44.1454C194.667 44.1454 190.333 44.1454 186 44.1454C186 40.1454 186 36.1454 186 32.1454Z" fill="#1EA2C7"/>
<path fill-rule="evenodd" clip-rule="evenodd" d="M87.9997 37.1454C97.1817 36.8184 106.182 37.1524 115 38.1454C108.634 37.9184 102.468 38.9184 96.4998 41.1454C90.5288 45.3504 84.3618 49.1844 77.9998 52.6454C75.0948 53.9314 72.0948 54.9314 68.9998 55.6454C67.8658 56.6614 68.1988 57.3284 69.9998 57.6454C62.9248 57.5124 56.2578 58.3454 49.9998 60.1454C48.0118 80.4514 47.3448 101.118 47.9998 122.145C47.0058 111.992 46.6718 101.659 46.9998 91.1454C47.1658 85.4694 46.9988 79.8024 46.4998 74.1454C46.1668 76.4784 45.8328 78.8124 45.4998 81.1454C45.1668 80.1454 44.8328 79.1454 44.4998 78.1454C42.5538 81.8564 40.7208 85.5224 38.9998 89.1454C32.9728 88.5234 31.9728 86.1894 35.9998 82.1454C34.4848 80.5634 32.8188 79.2294 30.9998 78.1454C33.8188 76.2264 36.4858 74.0604 38.9998 71.6454C38.4998 71.1454 37.9998 70.6454 37.4998 70.1454C35.6198 72.5984 33.2868 74.5984 30.4998 76.1454C30.1908 74.8794 29.6908 73.7124 28.9998 72.6454C31.0468 71.5724 33.0468 70.4064 34.9998 69.1454C40.1808 63.7974 45.5148 58.6304 50.9998 53.6454C63.0348 49.7914 74.7008 45.1244 85.9998 39.6454C86.8808 38.9374 87.5467 38.1034 87.9997 37.1454Z" fill="#7A64CD"/>
<path fill-rule="evenodd" clip-rule="evenodd" d="M145 50.1454C147.187 51.4034 149.52 52.4034 152 53.1454C154.878 54.2074 156.878 56.2074 158 59.1454C156 60.4784 154.333 62.1454 153 64.1454C147.324 69.8224 141.991 75.8224 137 82.1454C135.772 82.9514 134.772 83.9514 134 85.1454C133.667 85.1454 133.333 85.1453 133 85.1453C128.677 79.1563 123.677 73.8234 118 69.1454C126.517 64.0534 135.184 59.2194 144 54.6454C143.714 53.2574 144.048 51.7574 145 50.1454Z" fill="#312CA3"/>
<path fill-rule="evenodd" clip-rule="evenodd" d="M189 62.1454C183 69.1454 177 76.1454 171 83.1454C170.333 83.4784 169.667 83.8124 169 84.1454C168.237 83.3774 167.237 82.8774 166 82.6454C167.493 81.4894 167.326 80.6554 165.5 80.1454C158.681 78.9854 152.181 76.9854 146 74.1454C143.413 77.3684 140.413 80.0354 137 82.1454C141.991 75.8224 147.324 69.8224 153 64.1454C155.044 63.6144 156.711 62.4474 158 60.6454C163.167 60.4784 168.333 60.3124 173.5 60.1454C179.046 60.1504 184.212 60.8174 189 62.1454Z" fill="#85BF62"/>
<path fill-rule="evenodd" clip-rule="evenodd" d="M221 81.1454C221.157 82.5184 220.99 83.8524 220.5 85.1454C220.167 84.4784 219.833 83.8124 219.5 83.1454C219.167 84.4784 218.833 85.8124 218.5 87.1454C218.167 86.8124 217.833 86.4784 217.5 86.1454C215.242 88.0754 212.742 89.5754 210 90.6454C208 92.9784 206 95.3124 204 97.6454C197.01 99.3074 190.676 102.307 185 106.645C179.851 109.488 176.017 108.321 173.5 103.145C173.117 103.701 172.617 104.034 172 104.145C172.071 99.0454 171.404 94.0454 170 89.1454C169.17 94.7834 168.67 100.449 168.5 106.145C167.953 102.046 166.12 98.7134 163 96.1454C164.515 94.3804 165.182 92.3804 165 90.1454C166.752 88.3994 168.085 86.3994 169 84.1454C169.667 83.8124 170.333 83.4784 171 83.1454C169.31 86.8324 169.81 87.4994 172.5 85.1454C172.152 89.5324 173.486 93.1984 176.5 96.1454C186.665 92.6444 196.165 87.8114 205 81.6454C209.074 79.9534 213.24 78.4534 217.5 77.1454C217.833 77.4784 218.167 77.8124 218.5 78.1454C218.749 77.0214 219.249 76.0214 220 75.1454C220.966 77.0414 221.299 79.0414 221 81.1454Z" fill="#29126D"/>
<path fill-rule="evenodd" clip-rule="evenodd" d="M0.999753 23.1454C0.999753 29.4784 0.999753 35.8124 0.999753 42.1454C1.35175 52.4824 1.85175 62.8164 2.49975 73.1454C2.71875 71.7074 3.21875 70.3744 3.99975 69.1454C8.19775 65.8264 12.6978 63.8264 17.4998 63.1454C20.0718 57.6534 21.5718 51.9864 21.9998 46.1454C21.9998 57.1454 21.9997 68.1454 21.9997 79.1454C21.0037 79.0594 20.1707 79.3934 19.4997 80.1454C19.2497 83.3994 18.2497 86.3994 16.4997 89.1454C15.9387 88.6234 15.2717 88.2904 14.4997 88.1454C10.4197 89.4404 6.58675 91.1064 2.99975 93.1454C3.15975 94.8444 2.99375 96.5114 2.49975 98.1454C2.16675 95.8124 1.83275 93.4784 1.49975 91.1454C0.999747 109.142 0.832747 127.142 0.999747 145.145C0.999747 156.812 0.999747 168.478 0.999747 180.145C0.999747 182.812 0.999747 185.478 0.999747 188.145C-0.333253 133.145 -0.333247 78.1454 0.999753 23.1454Z" fill="#7C33AC"/>
<path fill-rule="evenodd" clip-rule="evenodd" d="M101 86.1453C104.048 88.5273 106.715 91.1934 109 94.1454C105.932 93.7974 102.932 92.4634 99.9998 90.1454C97.8638 91.1174 96.6968 92.7844 96.4998 95.1454C94.9418 93.2864 93.1088 91.7864 90.9998 90.6454C92.1468 89.3644 91.8128 89.0314 89.9998 89.6454C83.9208 96.8014 82.2538 104.801 84.9998 113.645C83.6188 119.665 82.9528 119.498 82.9998 113.145C81.6778 113.315 80.5108 112.982 79.4998 112.145C79.3328 112.645 79.1668 113.145 78.9998 113.645C80.4748 116.995 81.1418 120.495 80.9998 124.145C78.5068 123.776 77.8398 124.442 78.9998 126.145C75.3328 126.145 71.6668 126.145 67.9998 126.145C67.9998 111.478 67.9998 96.8123 67.9998 82.1453C75.3408 81.9793 82.6738 82.1453 89.9998 82.6453C93.9218 83.1193 97.5878 84.2863 101 86.1453Z" fill="#22113E"/>
<path fill-rule="evenodd" clip-rule="evenodd" d="M169 84.1454C168.085 86.3994 166.752 88.3994 165 90.1454C159.605 94.2084 155.271 99.2084 152 105.145C145.658 98.8024 139.658 92.1364 134 85.1454C134.772 83.9514 135.772 82.9514 137 82.1454C140.413 80.0354 143.413 77.3684 146 74.1454C152.181 76.9854 158.681 78.9854 165.5 80.1454C167.326 80.6554 167.493 81.4894 166 82.6454C167.237 82.8774 168.237 83.3774 169 84.1454Z" fill="#64B762"/>
<path fill-rule="evenodd" clip-rule="evenodd" d="M109 94.1454C110.333 94.8124 111.333 95.8124 112 97.1454C110.56 98.0084 109.226 98.0084 108 97.1454C105.28 99.8684 102.28 102.202 98.9998 104.145C97.3708 107.271 95.2048 109.938 92.4998 112.145C91.1738 116.789 89.0068 120.956 85.9998 124.645C86.5558 125.028 86.8888 125.528 86.9998 126.145C84.3328 126.145 81.6668 126.145 78.9998 126.145C77.8398 124.442 78.5068 123.776 80.9998 124.145C81.1418 120.495 80.4748 116.995 78.9998 113.645C79.1668 113.145 79.3328 112.645 79.4998 112.145C80.5108 112.982 81.6778 113.315 82.9998 113.145C82.9528 119.498 83.6188 119.665 84.9998 113.645C82.2538 104.801 83.9208 96.8014 89.9998 89.6454C91.8128 89.0314 92.1468 89.3644 90.9998 90.6454C93.1088 91.7864 94.9418 93.2864 96.4998 95.1454C96.6968 92.7844 97.8638 91.1174 99.9998 90.1454C102.932 92.4634 105.932 93.7974 109 94.1454Z" fill="#24104B"/>
<path fill-rule="evenodd" clip-rule="evenodd" d="M221 81.1454C221.333 81.1454 221.667 81.1454 222 81.1454C222 89.4784 222 97.8124 222 106.145C221.333 106.145 221 106.478 221 107.145C220.278 106.727 219.778 106.061 219.5 105.145C219.167 107.145 218.833 109.145 218.5 111.145C212.083 112.994 206.583 116.827 202 122.645C180.537 136.392 170.537 130.226 172 104.145C172.617 104.034 173.117 103.701 173.5 103.145C176.017 108.321 179.851 109.488 185 106.645C190.676 102.307 197.01 99.3074 204 97.6454C206 95.3124 208 92.9784 210 90.6454C212.742 89.5754 215.242 88.0754 217.5 86.1454C217.833 86.4784 218.167 86.8124 218.5 87.1454C218.833 85.8124 219.167 84.4784 219.5 83.1454C219.833 83.8124 220.167 84.4784 220.5 85.1454C220.99 83.8524 221.157 82.5184 221 81.1454Z" fill="#24115E"/>
<path fill-rule="evenodd" clip-rule="evenodd" d="M133 85.1453C133.333 85.1453 133.667 85.1454 134 85.1454C139.658 92.1364 145.658 98.8024 152 105.145C152.333 106.145 153 106.812 154 107.145C167.791 123.44 181.791 139.606 196 155.645C185.333 156.312 174.667 156.312 164 155.645C162.502 152.981 160.502 150.815 158 149.145C143.01 131.489 127.676 114.156 112 97.1454C111.333 95.8124 110.333 94.8124 109 94.1454C106.715 91.1934 104.048 88.5273 101 86.1453C110.257 83.8553 119.424 82.1883 128.5 81.1453C129.807 82.8373 131.307 84.1703 133 85.1453Z" fill="#E5E5E6"/>
<path fill-rule="evenodd" clip-rule="evenodd" d="M30.9998 78.1454C32.8188 79.2294 34.4848 80.5634 35.9998 82.1454C31.9728 86.1894 32.9728 88.5234 38.9998 89.1454C40.7208 85.5224 42.5538 81.8564 44.4998 78.1454C44.8328 79.1454 45.1668 80.1454 45.4998 81.1454C45.8328 78.8124 46.1668 76.4784 46.4998 74.1454C46.9988 79.8024 47.1658 85.4694 46.9998 91.1454C46.1808 93.9504 45.6808 96.9504 45.4998 100.145C45.1668 99.4784 44.8328 98.8124 44.4998 98.1454C41.3278 102.983 36.9948 106.316 31.4998 108.145C31.1668 107.812 30.8328 107.478 30.4998 107.145C29.9168 108.647 29.0838 109.98 27.9998 111.145C27.3078 110.62 26.8078 109.953 26.4998 109.145C26.1668 109.478 25.8328 109.812 25.4998 110.145C24.9998 120.806 24.8328 131.473 24.9998 142.145C24.6668 142.145 24.3328 142.145 23.9998 142.145C23.9998 141.478 23.9998 140.812 23.9998 140.145C23.9998 120.145 23.9997 100.145 23.9997 80.1454C24.3327 80.1454 24.6667 80.1454 24.9997 80.1454C26.0097 79.3244 26.5098 76.9914 26.4998 73.1454C27.2428 76.0424 27.7428 79.0424 27.9998 82.1454C29.0208 80.7444 30.0208 79.4104 30.9998 78.1454Z" fill="#5556C4"/>
<path fill-rule="evenodd" clip-rule="evenodd" d="M21.9997 79.1454C21.9997 83.1454 21.9998 87.1454 21.9998 91.1454C21.1698 101.637 20.6698 112.304 20.4998 123.145C20.1668 119.478 19.8328 115.812 19.4998 112.145C19.2428 116.022 18.2428 119.688 16.4998 123.145C15.9388 122.623 15.2718 122.29 14.4998 122.145C9.49977 126.79 6.16577 132.457 4.49977 139.145C4.16677 138.145 3.83277 137.145 3.49977 136.145C3.09377 139.387 2.26075 142.387 0.999747 145.145C0.832747 127.142 0.999747 109.142 1.49975 91.1454C1.83275 93.4784 2.16675 95.8124 2.49975 98.1454C2.99375 96.5114 3.15975 94.8444 2.99975 93.1454C6.58675 91.1064 10.4197 89.4404 14.4997 88.1454C15.2717 88.2904 15.9387 88.6234 16.4997 89.1454C18.2497 86.3994 19.2497 83.3994 19.4997 80.1454C20.1707 79.3934 21.0037 79.0594 21.9997 79.1454Z" fill="#561C9A"/>
<path fill-rule="evenodd" clip-rule="evenodd" d="M172 104.145C170.537 130.226 180.537 136.392 202 122.645C206.583 116.827 212.083 112.994 218.5 111.145C218.833 109.145 219.167 107.145 219.5 105.145C219.778 106.061 220.278 106.727 221 107.145C221.166 111.159 220.999 115.159 220.5 119.145C220.167 118.478 219.833 117.812 219.5 117.145C219.406 121.793 218.406 125.459 216.5 128.145C209.583 134.783 201.916 140.117 193.5 144.145C190.831 140.139 187.831 137.139 184.5 135.145C182.458 133.041 179.958 131.874 177 131.645C175.5 130.145 174 128.645 172.5 127.145C171.595 121.423 170.761 115.423 170 109.145C169.192 111.068 168.692 113.068 168.5 115.145C168.167 114.478 167.833 113.812 167.5 113.145C165.436 114.236 163.269 114.403 161 113.645C158.75 111.223 156.417 109.056 154 107.145C153 106.812 152.333 106.145 152 105.145C155.271 99.2084 159.605 94.2084 165 90.1454C165.182 92.3804 164.515 94.3804 163 96.1454C166.12 98.7134 167.953 102.046 168.5 106.145C168.67 100.449 169.17 94.7834 170 89.1454C171.404 94.0454 172.071 99.0454 172 104.145Z" fill="#251157"/>
<path fill-rule="evenodd" clip-rule="evenodd" d="M21.9998 46.1454C22.3328 46.1454 22.6667 46.1454 22.9997 46.1454C22.6717 56.9914 23.0057 67.6584 23.9997 78.1454C23.9997 78.8124 23.9997 79.4784 23.9997 80.1454C23.9997 100.145 23.9998 120.145 23.9998 140.145C23.3328 137.145 22.6668 134.145 21.9998 131.145C21.9998 117.812 21.9998 104.478 21.9998 91.1454C21.9998 87.1454 21.9997 83.1454 21.9997 79.1454C21.9997 68.1454 21.9998 57.1454 21.9998 46.1454Z" fill="#518CD2"/>
<path fill-rule="evenodd" clip-rule="evenodd" d="M129 124.145C129.149 125.197 128.983 126.197 128.5 127.145C125.471 128.674 123.305 131.007 122 134.145C120.429 136.06 118.429 137.06 116 137.145C116.149 138.197 115.983 139.197 115.5 140.145C114.484 139.011 113.817 139.344 113.5 141.145C107.998 138.787 102.665 136.121 97.4998 133.145C94.1848 134.861 91.6848 134.194 89.9998 131.145C91.3328 129.478 92.6668 127.812 93.9998 126.145C99.8728 119.086 106.207 112.42 113 106.145C118.698 111.842 124.032 117.842 129 124.145Z" fill="#52AA65"/>
<path fill-rule="evenodd" clip-rule="evenodd" d="M67.9998 126.145C71.6668 126.145 75.3328 126.145 78.9998 126.145C81.6668 126.145 84.3328 126.145 86.9998 126.145C89.3328 126.145 91.6668 126.145 93.9998 126.145C92.6668 127.812 91.3328 129.478 89.9998 131.145C85.6668 134.812 81.6668 138.812 77.9998 143.145C68.3328 143.145 58.6668 143.145 48.9998 143.145C48.3328 143.145 47.9998 142.812 47.9998 142.145C47.9998 138.145 47.9998 134.145 47.9998 130.145C48.8088 131.937 49.3088 133.937 49.4998 136.145C49.8328 134.145 50.1668 132.145 50.4998 130.145C50.8328 130.478 51.1668 130.812 51.4998 131.145C60.8538 129.179 70.3538 128.013 79.9998 127.645C75.8118 127.469 71.8118 126.969 67.9998 126.145Z" fill="#E1E2E4"/>
<path fill-rule="evenodd" clip-rule="evenodd" d="M46.9998 91.1454C46.6718 101.659 47.0058 111.992 47.9998 122.145C47.9998 124.812 47.9998 127.478 47.9998 130.145C47.9998 134.145 47.9998 138.145 47.9998 142.145C47.1088 141.384 46.4417 140.384 45.9997 139.145C46.9847 137.547 47.1507 135.88 46.4997 134.145C45.5467 136.1 44.2127 137.767 42.4997 139.145C42.1667 138.812 41.8327 138.478 41.4997 138.145C35.8257 139.898 30.6587 142.565 25.9997 146.145C25.0707 144.956 24.7378 143.623 24.9998 142.145C24.8328 131.473 24.9998 120.806 25.4998 110.145C25.8328 109.812 26.1668 109.478 26.4998 109.145C26.8078 109.953 27.3078 110.62 27.9998 111.145C29.0838 109.98 29.9168 108.647 30.4998 107.145C30.8328 107.478 31.1668 107.812 31.4998 108.145C36.9948 106.316 41.3278 102.983 44.4998 98.1454C44.8328 98.8124 45.1668 99.4784 45.4998 100.145C45.6808 96.9504 46.1808 93.9504 46.9998 91.1454Z" fill="#4141B6"/>
<path fill-rule="evenodd" clip-rule="evenodd" d="M21.9998 91.1454C21.9998 104.478 21.9998 117.812 21.9998 131.145C21.9998 135.812 21.9998 140.478 21.9998 145.145C21.1718 150.964 20.6718 156.964 20.4998 163.145C18.8028 164.009 17.6368 165.342 16.9998 167.145C11.1028 168.877 6.93675 172.543 4.49975 178.145C4.16675 177.478 3.83275 176.812 3.49975 176.145C2.89175 177.711 2.05775 179.045 0.999747 180.145C0.999747 168.478 0.999747 156.812 0.999747 145.145C2.26075 142.387 3.09377 139.387 3.49977 136.145C3.83277 137.145 4.16677 138.145 4.49977 139.145C6.16577 132.457 9.49977 126.79 14.4998 122.145C15.2718 122.29 15.9388 122.623 16.4998 123.145C18.2428 119.688 19.2428 116.022 19.4998 112.145C19.8328 115.812 20.1668 119.478 20.4998 123.145C20.6698 112.304 21.1698 101.637 21.9998 91.1454Z" fill="#3A1488"/>
<path fill-rule="evenodd" clip-rule="evenodd" d="M21.9998 131.145C22.6668 134.145 23.3328 137.145 23.9998 140.145C23.9998 140.812 23.9998 141.478 23.9998 142.145C24.1658 150.152 23.9998 158.152 23.4998 166.145C23.1168 166.701 22.6168 167.034 21.9998 167.145C21.9998 159.812 21.9998 152.478 21.9998 145.145C21.9998 140.478 21.9998 135.812 21.9998 131.145Z" fill="#2769BD"/>
<path fill-rule="evenodd" clip-rule="evenodd" d="M112 97.1454C127.676 114.156 143.01 131.489 158 149.145C159.292 154.079 157.625 157.913 153 160.645C147.225 164.084 141.225 167.084 135 169.645C130.428 171.018 125.761 171.851 121 172.145C117.667 172.145 114.333 172.145 111 172.145C104.963 172.474 98.9628 172.141 92.9998 171.145C94.6928 169.618 96.5268 168.285 98.4998 167.145C101.36 167.734 104.193 167.234 107 165.645C116.667 156.324 125.167 146.157 132.5 135.145C134.136 132.418 134.302 129.752 133 127.145C131.667 126.145 130.333 125.145 129 124.145C124.032 117.842 118.698 111.842 113 106.145C106.207 112.42 99.8728 119.086 93.9998 126.145C91.6668 126.145 89.3328 126.145 86.9998 126.145C86.8888 125.528 86.5558 125.028 85.9998 124.645C89.0068 120.956 91.1738 116.789 92.4998 112.145C95.2048 109.938 97.3708 107.271 98.9998 104.145C102.28 102.202 105.28 99.8684 108 97.1454C109.226 98.0084 110.56 98.0084 112 97.1454Z" fill="#391370"/>
<path fill-rule="evenodd" clip-rule="evenodd" d="M129 124.145C130.333 125.145 131.667 126.145 133 127.145C125.095 137.721 116.095 147.387 106 156.145C105.593 154.883 105.26 153.55 105 152.145C102.753 153.019 100.42 153.353 97.9998 153.145C97.9998 154.478 97.9998 155.812 97.9998 157.145C93.9898 154.814 89.6568 152.981 84.9998 151.645C82.3698 150.8 80.0358 151.3 77.9998 153.145C76.7158 152.015 75.8828 150.682 75.4998 149.145C73.5138 151.074 71.5138 153.074 69.4998 155.145C68.7348 155.075 68.2348 154.742 67.9998 154.145C71.3328 150.478 74.6668 146.812 77.9998 143.145C81.6668 138.812 85.6668 134.812 89.9998 131.145C91.6848 134.194 94.1848 134.861 97.4998 133.145C102.665 136.121 107.998 138.787 113.5 141.145C113.817 139.344 114.484 139.011 115.5 140.145C115.983 139.197 116.149 138.197 116 137.145C118.429 137.06 120.429 136.06 122 134.145C123.305 131.007 125.471 128.674 128.5 127.145C128.983 126.197 129.149 125.197 129 124.145Z" fill="#389E6B"/>
<path fill-rule="evenodd" clip-rule="evenodd" d="M222 106.145C222.167 121.815 222 137.482 221.5 153.145C220.283 158.676 218.449 164.009 216 169.145C210.299 173.997 203.966 177.83 197 180.645C187.888 183.615 178.721 186.449 169.5 189.145C165.648 192.645 161.815 196.145 158 199.645C154.621 201.384 151.288 203.217 148 205.145C134.926 206.904 121.926 209.071 109 211.645C99.3388 212.145 89.6718 212.311 79.9998 212.145C77.1948 211.326 74.1948 210.826 70.9998 210.645C77.9998 210.312 84.9998 209.978 91.9998 209.645C97.8998 207.67 103.9 206.003 110 204.645C112.371 201.939 115.037 199.606 118 197.645C122.847 195.392 127.847 193.392 133 191.645C137.514 188.554 141.847 185.22 146 181.645C151.035 179.052 156.368 177.386 162 176.645C163 175.645 164 174.645 165 173.645C170.666 172.424 175.999 170.424 181 167.645C176.639 165.465 172.306 163.298 168 161.145C157.876 167.532 146.876 172.199 135 175.145C134.414 174.936 133.914 174.602 133.5 174.145C130.034 174.847 126.534 175.514 123 176.145C115.716 175.345 108.383 174.845 101 174.645C107.901 174.517 114.568 173.684 121 172.145C125.761 171.851 130.428 171.018 135 169.645C141.225 167.084 147.225 164.084 153 160.645C157.625 157.913 159.292 154.079 158 149.145C160.502 150.815 162.502 152.981 164 155.645C174.667 156.312 185.333 156.312 196 155.645C181.791 139.606 167.791 123.44 154 107.145C156.417 109.056 158.75 111.223 161 113.645C163.269 114.403 165.436 114.236 167.5 113.145C167.833 113.812 168.167 114.478 168.5 115.145C168.692 113.068 169.192 111.068 170 109.145C170.761 115.423 171.595 121.423 172.5 127.145C174 128.645 175.5 130.145 177 131.645C179.958 131.874 182.458 133.041 184.5 135.145C187.831 137.139 190.831 140.139 193.5 144.145C201.916 140.117 209.583 134.783 216.5 128.145C218.406 125.459 219.406 121.793 219.5 117.145C219.833 117.812 220.167 118.478 220.5 119.145C220.999 115.159 221.166 111.159 221 107.145C221 106.478 221.333 106.145 222 106.145Z" fill="#20114A"/>
<path fill-rule="evenodd" clip-rule="evenodd" d="M47.9998 142.145C47.9998 142.812 48.3328 143.145 48.9998 143.145C48.4418 144.435 47.4418 145.268 45.9998 145.645C46.8078 145.953 47.4748 146.453 47.9998 147.145C46.0738 151.733 43.0738 155.4 38.9998 158.145C40.2138 159.714 41.8808 160.547 43.9998 160.645C39.2108 162.793 34.5438 165.126 29.9998 167.645C29.1628 168.656 28.8298 169.823 28.9998 171.145C35.6528 171.699 42.3198 172.033 48.9998 172.145C48.9998 172.478 48.9998 172.812 48.9998 173.145C39.9998 173.145 30.9998 173.145 21.9998 173.145C21.9998 171.145 21.9998 169.145 21.9998 167.145C22.6168 167.034 23.1168 166.701 23.4998 166.145C23.9998 158.152 24.1658 150.152 23.9998 142.145C24.3328 142.145 24.6668 142.145 24.9998 142.145C24.7378 143.623 25.0707 144.956 25.9997 146.145C30.6587 142.565 35.8257 139.898 41.4997 138.145C41.8327 138.478 42.1667 138.812 42.4997 139.145C44.2127 137.767 45.5467 136.1 46.4997 134.145C47.1507 135.88 46.9847 137.547 45.9997 139.145C46.4417 140.384 47.1088 141.384 47.9998 142.145Z" fill="#172D99"/>
<path fill-rule="evenodd" clip-rule="evenodd" d="M106 156.145C99.0548 163.122 90.7217 167.788 80.9997 170.145C79.7267 169.568 79.7267 168.902 80.9997 168.145C83.1667 166.853 85.4997 166.02 87.9997 165.645C87.4997 165.145 86.9997 164.645 86.4997 164.145C85.4997 164.478 84.4997 164.812 83.4997 165.145C79.5297 158.734 74.5297 157.734 68.4997 162.145C65.4867 161.6 65.3207 160.434 67.9997 158.645C67.6667 158.478 67.3327 158.312 66.9997 158.145C64.6567 159.989 62.4897 161.989 60.4997 164.145C60.0357 163.551 59.8687 162.884 59.9997 162.145C62.3327 159.145 64.9998 156.478 67.9998 154.145C68.2348 154.742 68.7348 155.075 69.4998 155.145C71.5138 153.074 73.5138 151.074 75.4998 149.145C75.8828 150.682 76.7158 152.015 77.9998 153.145C80.0358 151.3 82.3698 150.8 84.9998 151.645C89.6568 152.981 93.9898 154.814 97.9998 157.145C97.9998 155.812 97.9998 154.478 97.9998 153.145C100.42 153.353 102.753 153.019 105 152.145C105.26 153.55 105.593 154.883 106 156.145Z" fill="#239672"/>
<path fill-rule="evenodd" clip-rule="evenodd" d="M48.9998 143.145C58.6668 143.145 68.3328 143.145 77.9998 143.145C74.6668 146.812 71.3328 150.478 67.9998 154.145C64.9998 156.478 62.3327 159.145 59.9997 162.145C56.3057 165.172 52.9727 168.505 49.9997 172.145C49.6667 172.145 49.3328 172.145 48.9998 172.145C42.3198 172.033 35.6528 171.699 28.9998 171.145C28.8298 169.823 29.1628 168.656 29.9998 167.645C34.5438 165.126 39.2108 162.793 43.9998 160.645C41.8808 160.547 40.2138 159.714 38.9998 158.145C43.0738 155.4 46.0738 151.733 47.9998 147.145C47.4748 146.453 46.8078 145.953 45.9998 145.645C47.4418 145.268 48.4418 144.435 48.9998 143.145Z" fill="#1D1E8F"/>
<path fill-rule="evenodd" clip-rule="evenodd" d="M222 25.1454C223.165 78.3104 223.332 131.643 222.5 185.145C220.041 200.938 210.874 210.104 195 212.645C138.165 213.477 81.4988 213.31 24.9998 212.145C43.3328 212.145 61.6668 212.145 79.9998 212.145C89.6718 212.311 99.3388 212.145 109 211.645C121.926 209.071 134.926 206.904 148 205.145C151.288 203.217 154.621 201.384 158 199.645C161.815 196.145 165.648 192.645 169.5 189.145C178.721 186.449 187.888 183.615 197 180.645C203.966 177.83 210.299 173.997 216 169.145C218.449 164.009 220.283 158.676 221.5 153.145C222 137.482 222.167 121.815 222 106.145C222 97.8124 222 89.4784 222 81.1454C222 75.4784 222 69.8124 222 64.1454C222 51.1454 222 38.1454 222 25.1454Z" fill="#251949"/>
<path fill-rule="evenodd" clip-rule="evenodd" d="M80.9997 170.145C78.7077 171.912 76.0418 172.912 72.9998 173.145C65.1478 173.47 57.4817 173.137 49.9997 172.145C52.9727 168.505 56.3057 165.172 59.9997 162.145C59.8687 162.884 60.0357 163.551 60.4997 164.145C62.4897 161.989 64.6567 159.989 66.9997 158.145C67.3327 158.312 67.6667 158.478 67.9997 158.645C65.3207 160.434 65.4867 161.6 68.4997 162.145C74.5297 157.734 79.5297 158.734 83.4997 165.145C84.4997 164.812 85.4997 164.478 86.4997 164.145C86.9997 164.645 87.4997 165.145 87.9997 165.645C85.4997 166.02 83.1667 166.853 80.9997 168.145C79.7267 168.902 79.7267 169.568 80.9997 170.145Z" fill="#168F7B"/>
<path fill-rule="evenodd" clip-rule="evenodd" d="M48.9998 172.145C49.3328 172.145 49.6667 172.145 49.9997 172.145C57.4817 173.137 65.1478 173.47 72.9998 173.145C72.2908 174.049 71.2908 174.382 69.9998 174.145C62.8128 174.47 55.8128 174.136 48.9998 173.145C48.9998 172.812 48.9998 172.478 48.9998 172.145Z" fill="#253E5F"/>
<path fill-rule="evenodd" clip-rule="evenodd" d="M21.9998 145.145C21.9998 152.478 21.9998 159.812 21.9998 167.145C21.9998 169.145 21.9998 171.145 21.9998 173.145C30.9998 173.145 39.9998 173.145 48.9998 173.145C55.8128 174.136 62.8128 174.47 69.9998 174.145C68.8058 175.422 67.1398 176.089 64.9998 176.145C61.2358 174.912 57.5688 175.079 53.9998 176.645C59.0028 176.513 63.6698 177.513 67.9998 179.645C67.3328 179.978 66.6668 180.312 65.9998 180.645C66.8568 181.334 67.5228 182.167 67.9998 183.145C66.8758 184.559 65.8758 186.059 64.9998 187.645C54.9878 190.536 45.3208 194.202 35.9998 198.645C27.5408 199.758 19.3748 200.591 11.4998 201.145C11.4348 198.762 10.6018 198.095 8.99975 199.145C7.64975 197.695 5.98375 197.028 3.99975 197.145C2.40475 194.36 1.40475 191.36 0.999747 188.145C0.999747 185.478 0.999747 182.812 0.999747 180.145C2.05775 179.045 2.89175 177.711 3.49975 176.145C3.83275 176.812 4.16675 177.478 4.49975 178.145C6.93675 172.543 11.1028 168.877 16.9998 167.145C17.6368 165.342 18.8028 164.009 20.4998 163.145C20.6718 156.964 21.1718 150.964 21.9998 145.145Z" fill="#251167"/>
<path fill-rule="evenodd" clip-rule="evenodd" d="M133 127.145C134.302 129.752 134.136 132.418 132.5 135.145C125.167 146.157 116.667 156.324 107 165.645C104.193 167.234 101.36 167.734 98.4998 167.145C96.5268 168.285 94.6928 169.618 92.9998 171.145C98.9628 172.141 104.963 172.474 111 172.145C102.843 172.974 94.5098 173.474 85.9998 173.645C85.5428 174.059 85.2088 174.559 84.9998 175.145C85.9998 175.978 86.9998 176.812 87.9998 177.645C91.3248 177.784 94.3248 178.784 96.9998 180.645C96.2428 182.157 95.2428 183.491 93.9998 184.645C89.3328 186.645 84.6668 188.645 79.9998 190.645C78.9998 191.645 77.9998 192.645 76.9998 193.645C69.7138 194.181 63.3798 196.848 57.9998 201.645C54.5068 202.587 51.1738 203.92 47.9998 205.645C37.8298 208.126 28.1628 209.626 18.9998 210.145C12.4668 207.615 7.46675 203.281 3.99975 197.145C5.98375 197.028 7.64975 197.695 8.99975 199.145C10.6018 198.095 11.4348 198.762 11.4998 201.145C19.3748 200.591 27.5408 199.758 35.9998 198.645C45.3208 194.202 54.9878 190.536 64.9998 187.645C65.8758 186.059 66.8758 184.559 67.9998 183.145C67.5228 182.167 66.8568 181.334 65.9998 180.645C66.6668 180.312 67.3328 179.978 67.9998 179.645C63.6698 177.513 59.0028 176.513 53.9998 176.645C57.5688 175.079 61.2358 174.912 64.9998 176.145C67.1398 176.089 68.8058 175.422 69.9998 174.145C71.2908 174.382 72.2908 174.049 72.9998 173.145C76.0418 172.912 78.7077 171.912 80.9997 170.145C90.7217 167.788 99.0548 163.122 106 156.145C116.095 147.387 125.095 137.721 133 127.145Z" fill="#27115C"/>
<path fill-rule="evenodd" clip-rule="evenodd" d="M79.9998 212.145C61.6668 212.145 43.3328 212.145 24.9998 212.145C22.7138 212.05 20.7138 211.383 18.9998 210.145C28.1628 209.626 37.8298 208.126 47.9998 205.645C51.1738 203.92 54.5068 202.587 57.9998 201.645C63.3798 196.848 69.7138 194.181 76.9998 193.645C77.9998 192.645 78.9998 191.645 79.9998 190.645C84.6668 188.645 89.3328 186.645 93.9998 184.645C95.2428 183.491 96.2428 182.157 96.9998 180.645C94.3248 178.784 91.3248 177.784 87.9998 177.645C86.9998 176.812 85.9998 175.978 84.9998 175.145C85.2088 174.559 85.5428 174.059 85.9998 173.645C94.5098 173.474 102.843 172.974 111 172.145C114.333 172.145 117.667 172.145 121 172.145C114.568 173.684 107.901 174.517 101 174.645C108.383 174.845 115.716 175.345 123 176.145C126.534 175.514 130.034 174.847 133.5 174.145C133.914 174.602 134.414 174.936 135 175.145C146.876 172.199 157.876 167.532 168 161.145C172.306 163.298 176.639 165.465 181 167.645C175.999 170.424 170.666 172.424 165 173.645C164 174.645 163 175.645 162 176.645C156.368 177.386 151.035 179.052 146 181.645C141.847 185.22 137.514 188.554 133 191.645C127.847 193.392 122.847 195.392 118 197.645C115.037 199.606 112.371 201.939 110 204.645C103.9 206.003 97.8998 207.67 91.9998 209.645C84.9998 209.978 77.9998 210.312 70.9998 210.645C74.1948 210.826 77.1948 211.326 79.9998 212.145Z" fill="#241254"/>
</svg>
